<?xml version="1.0" encoding="utf-8"?>
<!-- Generator: Adobe Illustrator 21.1.0, SVG Export Plug-In . SVG Version: 6.00 Build 0)  -->
<svg version="1.1" id="Layer_1" xmlns="http://www.w3.org/2000/svg" xmlns:xlink="http://www.w3.org/1999/xlink" x="0px" y="0px"
	 viewBox="0 0 343 79.5" style="enable-background:new 0 0 343 79.5;" xml:space="preserve">
<style type="text/css">
	.st0{fill:none;stroke:#FFFFFF;stroke-width:0.5;stroke-miterlimit:10;}
	.st1{fill:#00B6DE;}
	.st2{fill:#3A6F8F;}
</style>
<line class="st0" x1="208.8" y1="3.2" x2="208.5" y2="79.5"/>
<g>
	<g>
		<g>
			<g>
				<path class="st1" d="M240.7,38.8c2.3,0,4.3-1.9,4.3-4.3c0-2.3-1.9-4.3-4.3-4.3c-2.3,0-4.3,1.9-4.3,4.3
					C236.4,36.9,238.3,38.8,240.7,38.8"/>
				<path class="st1" d="M260.1,42.9c-0.9,0-1.9-0.2-2.7-0.5l-7,7l-7-7c-0.8,0.3-1.7,0.4-2.6,0.4c-2.9,0-5.5-1.5-7-3.8
					c-0.1,1-0.2,2-0.2,3c0,12,7.5,21.6,16.9,21.6c9.3,0,16.9-9.7,16.9-21.6c0-1-0.1-2-0.2-3C265.6,41.3,263,42.9,260.1,42.9"/>
				<path class="st1" d="M260.1,38.8c2.3,0,4.3-1.9,4.3-4.3c0-2.3-1.9-4.3-4.3-4.3c-2.3,0-4.3,1.9-4.3,4.3
					C255.8,36.9,257.7,38.8,260.1,38.8"/>
				<path class="st1" d="M249,34.5c0,2.2-0.8,4.1-2.2,5.6l3.5,3.5l3.6-3.6c-1.3-1.5-2.2-3.4-2.2-5.6c0-4.6,3.7-8.3,8.3-8.3
					c1.5,0,2.9,0.4,4.1,1.1V15.7l-5.4,7.7c-2.5-1.8-5.3-2.9-8.4-2.9c-2.9,0-5.7,1-8.1,2.6l-5.2-7.4V27c1.1-0.5,2.3-0.8,3.6-0.8
					C245.3,26.2,249,29.9,249,34.5"/>
			</g>
		</g>
	</g>
	<g>
		<path class="st1" d="M276.1,40.7l2.9,8l2.8-8h2.2l-4.2,10.6h-1.7l-4.2-10.6C273.9,40.7,276.1,40.7,276.1,40.7z"/>
		<path class="st1" d="M288.3,51.5c-0.6,0-1.2-0.1-1.7-0.3c-0.5-0.2-0.9-0.5-1.3-0.9c-0.4-0.4-0.6-0.8-0.8-1.3
			c-0.2-0.5-0.3-1-0.3-1.5c0-0.5,0.1-1.1,0.3-1.6c0.2-0.5,0.5-0.9,0.8-1.3c0.4-0.4,0.8-0.7,1.3-0.9c0.5-0.2,1.1-0.3,1.7-0.3
			s1.2,0.1,1.7,0.3s0.9,0.5,1.3,0.9c0.4,0.4,0.6,0.8,0.8,1.3c0.2,0.5,0.3,1,0.3,1.6c0,0.5-0.1,1.1-0.3,1.5c-0.2,0.5-0.5,0.9-0.8,1.3
			c-0.4,0.4-0.8,0.7-1.3,0.9C289.5,51.4,289,51.5,288.3,51.5z M286.3,47.5c0,0.3,0.1,0.7,0.2,1s0.3,0.5,0.4,0.7
			c0.2,0.2,0.4,0.4,0.7,0.5c0.3,0.1,0.5,0.2,0.8,0.2c0.3,0,0.6-0.1,0.8-0.2c0.2-0.1,0.5-0.3,0.7-0.5s0.3-0.5,0.4-0.8
			c0.1-0.3,0.2-0.6,0.2-1c0-0.3-0.1-0.7-0.2-0.9c-0.1-0.3-0.3-0.5-0.4-0.7c-0.2-0.2-0.4-0.4-0.7-0.5c-0.3-0.1-0.5-0.2-0.8-0.2
			c-0.3,0-0.6,0.1-0.8,0.2c-0.2,0.1-0.5,0.3-0.7,0.5s-0.3,0.5-0.4,0.7C286.3,46.8,286.3,47.1,286.3,47.5z"/>
		<path class="st1" d="M299,51c-0.3,0.1-0.6,0.2-1,0.4c-0.4,0.1-0.8,0.2-1.2,0.2c-0.3,0-0.5,0-0.8-0.1s-0.5-0.2-0.6-0.3
			s-0.3-0.4-0.4-0.6s-0.2-0.5-0.2-0.9v-4.5h-1v-1.5h1V41h2v2.5h1.7v1.5h-1.7v3.8c0,0.3,0.1,0.5,0.2,0.6c0.1,0.1,0.3,0.2,0.5,0.2
			c0.2,0,0.4,0,0.6-0.1s0.4-0.1,0.5-0.2L299,51z"/>
		<path class="st1" d="M305.4,45.3c-0.6,0-1.2,0.1-1.6,0.4c-0.5,0.2-0.8,0.6-1,1v4.8h-2v-7.9h1.8v1.7c0.3-0.5,0.6-1,1.1-1.3
			c0.4-0.3,0.9-0.5,1.4-0.5c0.1,0,0.2,0,0.2,0c0.1,0,0.1,0,0.2,0L305.4,45.3L305.4,45.3z"/>
		<path class="st1" d="M310.8,51.5c-0.6,0-1.2-0.1-1.7-0.3c-0.5-0.2-0.9-0.5-1.3-0.9s-0.6-0.8-0.8-1.3c-0.2-0.5-0.3-1-0.3-1.5
			c0-0.6,0.1-1.1,0.3-1.6s0.5-0.9,0.8-1.3c0.4-0.4,0.8-0.7,1.3-0.9c0.5-0.2,1.1-0.3,1.7-0.3s1.2,0.1,1.7,0.3s0.9,0.5,1.3,0.9
			c0.4,0.4,0.6,0.8,0.8,1.3s0.3,1,0.3,1.5c0,0.1,0,0.3,0,0.4c0,0.1,0,0.2,0,0.3h-6.1c0,0.3,0.1,0.6,0.2,0.8s0.3,0.4,0.5,0.6
			c0.2,0.2,0.4,0.3,0.6,0.4s0.5,0.1,0.7,0.1c0.4,0,0.8-0.1,1.1-0.3c0.4-0.2,0.6-0.5,0.7-0.8l1.7,0.5c-0.3,0.6-0.8,1.1-1.4,1.5
			C312.5,51.3,311.7,51.5,310.8,51.5z M312.9,46.8c0-0.6-0.3-1.1-0.7-1.4c-0.4-0.4-0.9-0.5-1.4-0.5c-0.3,0-0.5,0-0.8,0.1
			c-0.2,0.1-0.4,0.2-0.6,0.4s-0.3,0.4-0.4,0.6c-0.1,0.2-0.2,0.5-0.2,0.8L312.9,46.8L312.9,46.8z"/>
	</g>
	<g>
		<g>
			<path class="st1" d="M327.7,63.7v-1.4h1.1v1.4C328.8,63.7,327.7,63.7,327.7,63.7z"/>
			<path class="st1" d="M330.1,61.2c0-0.4,0.1-0.7,0.2-1s0.3-0.6,0.5-0.8s0.5-0.4,0.8-0.6c0.3-0.1,0.7-0.2,1.1-0.2
				c0.5,0,1,0.1,1.4,0.4c0.4,0.2,0.7,0.5,0.9,0.9l-1.3,0.4c-0.1-0.2-0.3-0.3-0.4-0.4c-0.2-0.1-0.4-0.1-0.6-0.1c-0.2,0-0.4,0-0.5,0.1
				c-0.2,0.1-0.3,0.2-0.4,0.3c-0.1,0.1-0.2,0.3-0.3,0.5c-0.1,0.2-0.1,0.4-0.1,0.6s0,0.4,0.1,0.6s0.2,0.3,0.3,0.5s0.3,0.2,0.4,0.3
				c0.2,0.1,0.3,0.1,0.5,0.1c0.2,0,0.4-0.1,0.6-0.2c0.2-0.1,0.3-0.3,0.4-0.4l1.3,0.4c-0.2,0.4-0.5,0.7-0.9,0.9s-0.9,0.4-1.4,0.4
				c-0.4,0-0.8-0.1-1.1-0.2c-0.3-0.1-0.6-0.3-0.8-0.6c-0.2-0.2-0.4-0.5-0.5-0.8C330.1,61.9,330.1,61.6,330.1,61.2z"/>
			<path class="st1" d="M337.6,63.8c-0.2,0-0.5,0-0.7-0.1c-0.2-0.1-0.4-0.2-0.5-0.3c-0.2-0.1-0.3-0.3-0.4-0.5s-0.1-0.4-0.1-0.6
				c0-0.2,0.1-0.5,0.2-0.7c0.1-0.2,0.3-0.4,0.4-0.5c0.2-0.1,0.4-0.3,0.7-0.3c0.3-0.1,0.5-0.1,0.9-0.1c0.2,0,0.4,0,0.7,0.1
				c0.2,0,0.4,0.1,0.6,0.2v-0.3c0-0.3-0.1-0.6-0.3-0.8c-0.2-0.2-0.5-0.3-0.8-0.3c-0.3,0-0.5,0-0.8,0.1c-0.3,0.1-0.5,0.2-0.8,0.4
				l-0.4-0.8c0.6-0.4,1.3-0.6,2.1-0.6c0.7,0,1.3,0.2,1.7,0.5c0.4,0.4,0.6,0.9,0.6,1.5v1.6c0,0.1,0,0.2,0.1,0.3
				c0,0.1,0.1,0.1,0.2,0.1v1.1c-0.2,0-0.4,0.1-0.6,0.1c-0.2,0-0.4-0.1-0.6-0.2c-0.1-0.1-0.2-0.3-0.2-0.4l0-0.3
				c-0.2,0.3-0.5,0.5-0.8,0.7C338.3,63.8,338,63.8,337.6,63.8z M338,62.9c0.2,0,0.4,0,0.6-0.1c0.2-0.1,0.3-0.2,0.5-0.3
				c0.1-0.1,0.2-0.2,0.2-0.4v-0.6c-0.2-0.1-0.3-0.1-0.5-0.1c-0.2,0-0.4-0.1-0.5-0.1c-0.3,0-0.6,0.1-0.8,0.2
				c-0.2,0.2-0.3,0.3-0.3,0.6c0,0.2,0.1,0.4,0.2,0.5C337.5,62.8,337.7,62.9,338,62.9z"/>
		</g>
		<g>
			<path class="st1" d="M273.9,63.7l4.2-10.6h1.7l4.2,10.6h-2.2l-1-2.6h-3.7l-1,2.6H273.9z M278.9,55.4l-1.5,4.3h3L278.9,55.4z"/>
			<path class="st1" d="M290.2,57.6c-0.6,0-1.1,0.1-1.6,0.4c-0.5,0.2-0.8,0.6-1,1v4.7h-2v-7.8h1.8v1.7c0.3-0.5,0.6-1,1.1-1.3
				c0.4-0.3,0.9-0.5,1.4-0.5c0.1,0,0.2,0,0.2,0c0.1,0,0.1,0,0.2,0V57.6z"/>
			<path class="st1" d="M295,63.8c-0.5,0-1-0.1-1.4-0.3c-0.4-0.2-0.8-0.5-1.1-0.9c-0.3-0.4-0.5-0.8-0.7-1.3c-0.2-0.5-0.3-1-0.3-1.5
				c0-0.6,0.1-1.1,0.3-1.6c0.2-0.5,0.4-0.9,0.7-1.3c0.3-0.4,0.7-0.7,1.1-0.9c0.4-0.2,0.9-0.3,1.5-0.3c0.6,0,1.2,0.1,1.6,0.4
				c0.5,0.3,0.8,0.6,1.1,1.1v-1.4h1.7v7.4c0,0.6-0.1,1.1-0.3,1.6c-0.2,0.5-0.5,0.8-0.9,1.2s-0.8,0.6-1.4,0.7
				c-0.5,0.2-1.1,0.3-1.7,0.3c-0.9,0-1.6-0.1-2.2-0.4c-0.6-0.3-1.1-0.7-1.5-1.2l1.1-1.1c0.3,0.4,0.7,0.7,1.1,0.9s0.9,0.3,1.5,0.3
				c0.3,0,0.6,0,0.9-0.1c0.3-0.1,0.5-0.2,0.7-0.4c0.2-0.2,0.4-0.4,0.5-0.7c0.1-0.3,0.2-0.6,0.2-1v-1c-0.3,0.4-0.6,0.8-1.1,1
				C296,63.6,295.5,63.8,295,63.8z M295.7,62.2c0.2,0,0.4,0,0.6-0.1c0.2-0.1,0.4-0.2,0.5-0.3c0.2-0.1,0.3-0.3,0.4-0.4
				c0.1-0.2,0.2-0.3,0.3-0.5V59c-0.2-0.5-0.5-0.8-0.8-1.1c-0.4-0.3-0.8-0.4-1.2-0.4c-0.3,0-0.6,0.1-0.8,0.2
				c-0.3,0.1-0.5,0.3-0.6,0.5c-0.2,0.2-0.3,0.5-0.4,0.8s-0.1,0.6-0.1,0.9c0,0.3,0.1,0.6,0.2,0.9c0.1,0.3,0.3,0.5,0.5,0.7
				c0.2,0.2,0.4,0.4,0.7,0.5C295.1,62.1,295.4,62.2,295.7,62.2z"/>
			<path class="st1" d="M305.7,63.9c-0.6,0-1.2-0.1-1.7-0.3c-0.5-0.2-0.9-0.5-1.3-0.9c-0.4-0.4-0.6-0.8-0.8-1.3s-0.3-1-0.3-1.5
				c0-0.6,0.1-1.1,0.3-1.6c0.2-0.5,0.5-0.9,0.8-1.3c0.4-0.4,0.8-0.7,1.3-0.9c0.5-0.2,1.1-0.3,1.7-0.3s1.2,0.1,1.7,0.3
				c0.5,0.2,0.9,0.5,1.3,0.9c0.4,0.4,0.6,0.8,0.8,1.3c0.2,0.5,0.3,1,0.3,1.5c0,0.1,0,0.3,0,0.4c0,0.1,0,0.2,0,0.3h-6
				c0,0.3,0.1,0.6,0.2,0.8c0.1,0.2,0.3,0.4,0.5,0.6c0.2,0.2,0.4,0.3,0.6,0.4c0.2,0.1,0.5,0.1,0.7,0.1c0.4,0,0.8-0.1,1.1-0.3
				c0.4-0.2,0.6-0.4,0.7-0.8l1.7,0.5c-0.3,0.6-0.7,1.1-1.4,1.5C307.3,63.7,306.6,63.9,305.7,63.9z M307.7,59.2
				c0-0.6-0.3-1.1-0.6-1.4c-0.4-0.4-0.8-0.5-1.4-0.5c-0.3,0-0.5,0-0.8,0.1c-0.2,0.1-0.4,0.2-0.6,0.4c-0.2,0.2-0.3,0.4-0.4,0.6
				c-0.1,0.2-0.2,0.5-0.2,0.8H307.7z"/>
			<path class="st1" d="M318.9,63.7h-2v-4.4c0-0.6-0.1-1.1-0.3-1.4c-0.2-0.3-0.5-0.4-0.9-0.4c-0.2,0-0.4,0-0.6,0.1
				c-0.2,0.1-0.4,0.2-0.6,0.3c-0.2,0.1-0.4,0.3-0.5,0.5s-0.3,0.4-0.3,0.7v4.6h-2v-7.8h1.8v1.4c0.3-0.5,0.7-0.9,1.3-1.2
				s1.2-0.4,1.8-0.4c0.5,0,0.9,0.1,1.2,0.3c0.3,0.2,0.5,0.4,0.7,0.7c0.2,0.3,0.3,0.6,0.4,1c0.1,0.4,0.1,0.7,0.1,1.1V63.7z"/>
			<path class="st1" d="M326,63.3c-0.3,0.1-0.6,0.2-1,0.4c-0.4,0.1-0.8,0.2-1.2,0.2c-0.3,0-0.5,0-0.8-0.1c-0.2-0.1-0.5-0.2-0.6-0.3
				c-0.2-0.2-0.3-0.4-0.4-0.6c-0.1-0.2-0.2-0.5-0.2-0.9v-4.5h-1v-1.5h1v-2.5h2v2.5h1.7v1.5h-1.7v3.8c0,0.3,0.1,0.5,0.2,0.6
				c0.1,0.1,0.3,0.2,0.5,0.2c0.2,0,0.4,0,0.6-0.1s0.4-0.1,0.5-0.2L326,63.3z"/>
		</g>
	</g>
	<g>
		<path class="st1" d="M282.6,38.8v-7l-2.7,5.2h-1.1l-2.7-5.2v7h-2.1V28.1h2.2l3.1,6.1l3.2-6.1h2.2v10.6L282.6,38.8L282.6,38.8z"/>
		<path class="st1" d="M287.3,29.8v-2h2v2H287.3z M287.3,38.8v-7.9h2v7.9H287.3z"/>
		<path class="st1" d="M295.5,38.9c-0.6,0-1.2-0.1-1.7-0.3c-0.5-0.2-0.9-0.5-1.3-0.9s-0.6-0.8-0.8-1.3c-0.2-0.5-0.3-1-0.3-1.5
			c0-0.6,0.1-1.1,0.3-1.6c0.2-0.5,0.5-0.9,0.8-1.3c0.4-0.4,0.8-0.7,1.3-0.9c0.5-0.2,1.1-0.3,1.7-0.3s1.2,0.1,1.7,0.3
			s0.9,0.5,1.3,0.9c0.4,0.4,0.6,0.8,0.8,1.3s0.3,1,0.3,1.5c0,0.1,0,0.3,0,0.4c0,0.1,0,0.2,0,0.3h-6.1c0,0.3,0.1,0.6,0.2,0.8
			s0.3,0.4,0.5,0.6c0.2,0.2,0.4,0.3,0.6,0.4s0.5,0.1,0.7,0.1c0.4,0,0.8-0.1,1.1-0.3c0.4-0.2,0.6-0.5,0.7-0.8l1.7,0.5
			c-0.3,0.6-0.8,1.1-1.4,1.5C297.1,38.7,296.4,38.9,295.5,38.9z M297.5,34.2c0-0.6-0.3-1.1-0.7-1.4c-0.4-0.4-0.9-0.5-1.4-0.5
			c-0.3,0-0.5,0-0.8,0.1c-0.2,0.1-0.4,0.2-0.6,0.4c-0.2,0.2-0.3,0.4-0.4,0.6c-0.1,0.2-0.2,0.5-0.2,0.8L297.5,34.2L297.5,34.2z"/>
		<path class="st1" d="M303.9,38.9c-0.8,0-1.4-0.3-1.8-0.8c-0.4-0.5-0.6-1.3-0.6-2.3v-4.9h2v4.5c0,1.2,0.4,1.8,1.3,1.8
			c0.4,0,0.8-0.1,1.1-0.4s0.7-0.6,0.9-1.1v-4.9h2v5.5c0,0.2,0,0.4,0.1,0.5c0.1,0.1,0.2,0.1,0.4,0.2v1.7c-0.2,0-0.4,0.1-0.6,0.1
			c-0.2,0-0.3,0-0.4,0c-0.4,0-0.6-0.1-0.8-0.2c-0.2-0.2-0.3-0.4-0.4-0.7l0-0.6c-0.4,0.5-0.8,0.9-1.4,1.2
			C305.2,38.8,304.6,38.9,303.9,38.9z"/>
		<path class="st1" d="M312.7,30.9l1.7,2.5l0.1,0.3l0.1-0.3l1.7-2.5h2.1l-2.8,3.9l2.8,3.9h-2.1l-1.7-2.4l-0.1-0.3l-0.1,0.3l-1.7,2.4
			h-2.1l2.8-3.9l-2.8-3.9C310.7,30.9,312.7,30.9,312.7,30.9z"/>
	</g>
	<g>
		<path class="st1" d="M281.7,25.2c-0.8,0.9-1.8,1.3-2.8,1.3c-0.7,0-1.3-0.1-1.9-0.5c-0.6-0.3-1.1-0.7-1.6-1.2
			c-0.4-0.5-0.8-1.1-1-1.7c-0.3-0.7-0.4-1.3-0.4-2.1c0-0.7,0.1-1.4,0.4-2.1c0.3-0.6,0.6-1.2,1.1-1.7s1-0.9,1.6-1.2
			c0.6-0.3,1.3-0.4,2-0.4c1,0,1.8,0.2,2.5,0.6c0.7,0.4,1.2,1,1.6,1.7l-1.5,1.1c-0.3-0.5-0.6-0.9-1.1-1.2c-0.5-0.3-1-0.4-1.5-0.4
			c-0.4,0-0.8,0.1-1.2,0.3c-0.4,0.2-0.7,0.4-0.9,0.8s-0.4,0.7-0.6,1.1c-0.1,0.4-0.2,0.9-0.2,1.4c0,0.5,0.1,1,0.2,1.4
			c0.1,0.4,0.4,0.8,0.6,1.1c0.3,0.3,0.6,0.6,1,0.8c0.4,0.2,0.8,0.3,1.2,0.3c1,0,1.9-0.5,2.7-1.5v-0.7h-2.1V21h3.9v5.5h-1.7
			L281.7,25.2L281.7,25.2z"/>
		<path class="st1" d="M289.3,26.6c-0.6,0-1.2-0.1-1.7-0.3c-0.5-0.2-0.9-0.5-1.3-0.9s-0.6-0.8-0.8-1.3c-0.2-0.5-0.3-1-0.3-1.5
			c0-0.6,0.1-1.1,0.3-1.6c0.2-0.5,0.5-0.9,0.8-1.3c0.4-0.4,0.8-0.7,1.3-0.9c0.5-0.2,1.1-0.3,1.7-0.3s1.2,0.1,1.7,0.3
			s0.9,0.5,1.3,0.9c0.4,0.4,0.6,0.8,0.8,1.3s0.3,1,0.3,1.5c0,0.1,0,0.3,0,0.4c0,0.1,0,0.2,0,0.3h-6.1c0,0.3,0.1,0.6,0.2,0.8
			c0.1,0.2,0.3,0.4,0.5,0.6c0.2,0.2,0.4,0.3,0.6,0.4s0.5,0.1,0.7,0.1c0.4,0,0.8-0.1,1.1-0.3c0.4-0.2,0.6-0.5,0.7-0.8l1.7,0.5
			c-0.3,0.6-0.8,1.1-1.4,1.5C290.9,26.4,290.2,26.6,289.3,26.6z M291.3,21.8c0-0.6-0.3-1.1-0.7-1.4c-0.4-0.4-0.9-0.5-1.4-0.5
			c-0.3,0-0.5,0-0.8,0.1c-0.2,0.1-0.4,0.2-0.6,0.4c-0.2,0.2-0.3,0.4-0.4,0.6c-0.1,0.2-0.2,0.5-0.2,0.8L291.3,21.8L291.3,21.8z"/>
		<path class="st1" d="M300,20.3c-0.6,0-1.2,0.1-1.6,0.4c-0.5,0.2-0.8,0.6-1,1v4.8h-2v-7.9h1.8v1.7c0.3-0.5,0.6-1,1.1-1.3
			c0.4-0.3,0.9-0.5,1.4-0.5c0.1,0,0.2,0,0.2,0c0.1,0,0.1,0,0.2,0L300,20.3L300,20.3z"/>
		<path class="st1" d="M305.4,26.6c-0.6,0-1.2-0.1-1.7-0.3c-0.5-0.2-0.9-0.5-1.3-0.9s-0.6-0.8-0.8-1.3c-0.2-0.5-0.3-1-0.3-1.5
			c0-0.6,0.1-1.1,0.3-1.6c0.2-0.5,0.5-0.9,0.8-1.3c0.4-0.4,0.8-0.7,1.3-0.9c0.5-0.2,1.1-0.3,1.7-0.3s1.2,0.1,1.7,0.3
			s0.9,0.5,1.3,0.9c0.4,0.4,0.6,0.8,0.8,1.3s0.3,1,0.3,1.5c0,0.1,0,0.3,0,0.4c0,0.1,0,0.2,0,0.3h-6.1c0,0.3,0.1,0.6,0.2,0.8
			c0.1,0.2,0.3,0.4,0.5,0.6c0.2,0.2,0.4,0.3,0.6,0.4s0.5,0.1,0.7,0.1c0.4,0,0.8-0.1,1.1-0.3c0.4-0.2,0.6-0.5,0.7-0.8l1.7,0.5
			c-0.3,0.6-0.8,1.1-1.4,1.5C307.1,26.4,306.3,26.6,305.4,26.6z M307.5,21.8c0-0.6-0.3-1.1-0.7-1.4c-0.4-0.4-0.9-0.5-1.4-0.5
			c-0.3,0-0.5,0-0.8,0.1c-0.2,0.1-0.4,0.2-0.6,0.4s-0.3,0.4-0.4,0.6c-0.1,0.2-0.2,0.5-0.2,0.8L307.5,21.8L307.5,21.8z"/>
		<path class="st1" d="M310.8,25.2l4.4-5.2H311v-1.4h6.3v1.2l-4.3,5.2h4.4v1.4h-6.6L310.8,25.2L310.8,25.2z"/>
	</g>
</g>
<g>
	<path class="st2" d="M98.4,21.4c-0.4-0.2-0.8-0.4-1.3-0.4c-1.5,0-2.4,1-2.4,2.5c0,1.5,1.1,2.5,2.4,2.5c0.5,0,1.1-0.1,1.4-0.3
		l0.1,0.9c-0.5,0.2-1.1,0.2-1.4,0.2c-2,0-3.3-1.3-3.3-3.3c0-1.9,1.4-3.2,3.3-3.2c0.5,0,1,0.1,1.4,0.3L98.4,21.4z"/>
	<path class="st2" d="M103.5,20.3c1.9,0,3,1.4,3,3.3c0,1.9-1.1,3.3-3,3.3s-3-1.3-3-3.3C100.5,21.7,101.6,20.3,103.5,20.3z M103.5,26
		c1.4,0,2.1-1.2,2.1-2.5c0-1.3-0.7-2.5-2.1-2.5c-1.4,0-2.1,1.2-2.1,2.5C101.4,24.8,102.1,26,103.5,26z"/>
	<path class="st2" d="M109,20.4h1.5l2,5.2l1.9-5.2h1.5v6.3H115v-5.4h0l-2.1,5.4H112l-2.1-5.4h0v5.4H109L109,20.4L109,20.4z"/>
	<path class="st2" d="M118.7,20.4h1.5l2,5.2l1.9-5.2h1.5v6.3h-0.9v-5.4h0l-2.1,5.4h-0.9l-2.1-5.4h0v5.4h-0.9L118.7,20.4L118.7,20.4z
		"/>
	<path class="st2" d="M128.4,20.4h0.9v6.3h-0.9V20.4z"/>
	<path class="st2" d="M135,21.3c-0.5-0.2-0.7-0.3-1.2-0.3c-0.5,0-1.1,0.2-1.1,0.8c0,1.2,2.7,0.9,2.7,3c0,1.3-1,1.9-2.3,1.9
		c-0.4,0-0.9-0.1-1.3-0.3l0.1-0.8c0.3,0.1,0.8,0.3,1.3,0.3c0.5,0,1.2-0.3,1.2-1c0-1.4-2.7-1-2.7-3c0-1.1,0.9-1.7,2-1.7
		c0.4,0,0.9,0.1,1.3,0.2L135,21.3z"/>
	<path class="st2" d="M140.7,21.3c-0.5-0.2-0.7-0.3-1.2-0.3c-0.5,0-1.1,0.2-1.1,0.8c0,1.2,2.7,0.9,2.7,3c0,1.3-1,1.9-2.3,1.9
		c-0.4,0-0.9-0.1-1.3-0.3l0.1-0.8c0.3,0.1,0.8,0.3,1.3,0.3c0.5,0,1.2-0.3,1.2-1c0-1.4-2.7-1-2.7-3c0-1.1,0.9-1.7,2-1.7
		c0.4,0,0.9,0.1,1.3,0.2L140.7,21.3z"/>
	<path class="st2" d="M143.5,20.4h0.9v6.3h-0.9V20.4z"/>
	<path class="st2" d="M150,20.3c1.9,0,3,1.4,3,3.3c0,1.9-1.1,3.3-3,3.3c-1.9,0-3-1.3-3-3.3C146.9,21.7,148,20.3,150,20.3z M150,26
		c1.4,0,2.1-1.2,2.1-2.5c0-1.3-0.7-2.5-2.1-2.5c-1.4,0-2.1,1.2-2.1,2.5C147.9,24.8,148.5,26,150,26z"/>
	<path class="st2" d="M155.5,20.4h1.2l2.8,5.1h0v-5.1h0.9v6.3h-1.2l-2.8-5.2h0v5.2h-0.9V20.4z"/>
	<path class="st2" d="M166.8,20.4h1.9c1.9,0,3.3,1.2,3.3,3.1c0,2.1-1.3,3.2-3.3,3.2h-1.9V20.4z M167.7,25.9h0.9
		c1.5,0,2.4-0.7,2.4-2.4c0-1.5-1-2.3-2.3-2.3h-1.1L167.7,25.9L167.7,25.9z"/>
	<path class="st2" d="M174.6,20.4h3.5v0.8h-2.6V23h2.4v0.8h-2.4v2.1h2.6v0.8h-3.5V20.4z"/>
	<path class="st2" d="M183.6,21.3c-0.5-0.2-0.7-0.3-1.2-0.3c-0.5,0-1.1,0.2-1.1,0.8c0,1.2,2.7,0.9,2.7,3c0,1.3-1,1.9-2.3,1.9
		c-0.4,0-0.9-0.1-1.3-0.3l0.1-0.8c0.3,0.1,0.8,0.3,1.3,0.3c0.5,0,1.2-0.3,1.2-1c0-1.4-2.7-1-2.7-3c0-1.1,0.9-1.7,2-1.7
		c0.4,0,0.9,0.1,1.3,0.2L183.6,21.3z"/>
	<path class="st2" d="M96.9,41.5h-1.1l-2.4-6.3h1l1.9,5.5h0l2-5.5h0.9L96.9,41.5z"/>
	<path class="st2" d="M101.8,35.2h0.9l2.7,6.3h-1l-0.6-1.6h-3.1l-0.6,1.6h-0.9L101.8,35.2z M102.2,36.1l-1.3,3.1h2.5L102.2,36.1z"/>
	<path class="st2" d="M106.2,35.2h0.9v5.5h2.6v0.8h-3.5V35.2z"/>
	<path class="st2" d="M110.8,35.2h3.5V36h-2.6v1.8h2.4v0.8h-2.4v2.1h2.6v0.8h-3.5C110.8,41.5,110.8,35.2,110.8,35.2z"/>
	<path class="st2" d="M120.6,38.9c0,1.8-0.9,2.7-2.4,2.7c-1.5,0-2.4-0.9-2.4-2.7v-3.7h0.9v3.6c0,1.2,0.4,2,1.5,2
		c1.2,0,1.5-0.8,1.5-2v-3.6h0.9L120.6,38.9L120.6,38.9z"/>
	<path class="st2" d="M122.2,35.2h1.5c1.2,0,2.4,0.2,2.4,1.7c0,0.8-0.6,1.3-1.3,1.4v0c0.3,0.1,0.4,0.2,0.6,0.6l1.2,2.5h-1l-1-2.2
		c-0.3-0.6-0.6-0.6-1.1-0.6h-0.5v2.8h-0.9C122.2,41.5,122.2,35.2,122.2,35.2z M123.1,37.9h0.8c0.9,0,1.4-0.4,1.4-1
		c0-0.6-0.4-0.9-1.3-0.9h-0.9V37.9z"/>
	<path class="st2" d="M130.6,36.2c-0.5-0.2-0.7-0.3-1.2-0.3c-0.5,0-1.1,0.2-1.1,0.8c0,1.2,2.7,0.9,2.7,3c0,1.3-1,1.9-2.3,1.9
		c-0.4,0-0.9-0.1-1.3-0.3l0.1-0.8c0.3,0.1,0.8,0.3,1.3,0.3c0.5,0,1.2-0.3,1.2-1c0-1.4-2.7-1-2.7-3c0-1.1,0.9-1.7,2-1.7
		c0.4,0,0.9,0.1,1.3,0.2L130.6,36.2z"/>
	<path class="st2" d="M134.7,35.2h1.5l2,5.2l1.9-5.2h1.5v6.3h-0.9v-5.4h0l-2.1,5.4h-0.9l-2.1-5.4h0v5.4h-0.9L134.7,35.2L134.7,35.2z
		"/>
	<path class="st2" d="M145.9,35.1c1.9,0,3,1.4,3,3.3c0,1.9-1.1,3.3-3,3.3c-1.9,0-3-1.3-3-3.3C142.9,36.5,144,35.1,145.9,35.1z
		 M145.9,40.8c1.4,0,2.1-1.2,2.1-2.5c0-1.3-0.7-2.5-2.1-2.5c-1.4,0-2.1,1.2-2.1,2.5C143.8,39.6,144.5,40.8,145.9,40.8z"/>
	<path class="st2" d="M150.2,35.2h1.7c1.3,0,2.2,0.4,2.2,1.6c0,0.9-0.5,1.3-1.3,1.5v0c0.9,0.1,1.5,0.6,1.5,1.5
		c0,1.4-1.1,1.7-2.4,1.7h-1.7L150.2,35.2L150.2,35.2z M151.1,37.9h0.5c0.9,0,1.6-0.1,1.6-1c0-0.7-0.6-0.9-1.2-0.9h-0.9L151.1,37.9
		L151.1,37.9z M151.1,40.8h0.7c0.8,0,1.5-0.2,1.5-1c0-1-0.9-1.1-1.6-1.1h-0.6L151.1,40.8L151.1,40.8z"/>
	<path class="st2" d="M155.7,35.2h0.9v6.3h-0.9V35.2z"/>
	<path class="st2" d="M158.2,35.2h0.9v5.5h2.6v0.8h-3.5L158.2,35.2L158.2,35.2z"/>
	<path class="st2" d="M162.7,35.2h0.9v6.3h-0.9V35.2z"/>
	<path class="st2" d="M165.2,35.2h3.5V36h-2.6v1.8h2.4v0.8h-2.4v2.1h2.6v0.8h-3.5V35.2z M167.5,34.7h-0.6l-1.2-1.3h1L167.5,34.7z"/>
	<path class="st2" d="M170.1,35.2h1.5c1.2,0,2.4,0.2,2.4,1.7c0,0.8-0.6,1.3-1.3,1.4v0c0.3,0.1,0.4,0.2,0.6,0.6l1.2,2.5h-1l-1-2.2
		c-0.3-0.6-0.6-0.6-1.1-0.6H171v2.8h-0.9L170.1,35.2L170.1,35.2z M171,37.9h0.8c0.9,0,1.4-0.4,1.4-1c0-0.6-0.4-0.9-1.3-0.9H171V37.9
		z"/>
	<path class="st2" d="M175.7,35.2h3.5V36h-2.6v1.8h2.4v0.8h-2.4v2.1h2.6v0.8h-3.5V35.2z"/>
	<path class="st2" d="M183.5,36.2c-0.5-0.2-0.7-0.3-1.2-0.3c-0.5,0-1.1,0.2-1.1,0.8c0,1.2,2.7,0.9,2.7,3c0,1.3-1,1.9-2.3,1.9
		c-0.4,0-0.9-0.1-1.3-0.3l0.1-0.8c0.3,0.1,0.8,0.3,1.3,0.3c0.5,0,1.2-0.3,1.2-1c0-1.4-2.7-1-2.7-3c0-1.1,0.9-1.7,2-1.7
		c0.4,0,0.9,0.1,1.3,0.2L183.5,36.2z"/>
	<path class="st2" d="M94.1,50h1.9c1.9,0,3.3,1.2,3.3,3.1c0,2.1-1.3,3.2-3.3,3.2h-1.9V50z M95,55.5h0.9c1.6,0,2.4-0.7,2.4-2.4
		c0-1.5-1-2.3-2.3-2.3H95L95,55.5L95,55.5z"/>
	<path class="st2" d="M103.5,50h3.5v0.8h-2.6v1.8h2.4v0.8h-2.4v2.1h2.6v0.8h-3.5C103.5,56.3,103.5,50,103.5,50z"/>
	<path class="st2" d="M116.7,50h0.9v5.5h2.6v0.8h-3.5L116.7,50L116.7,50z"/>
	<path class="st2" d="M123.5,50h1l-0.8,2.2h-0.8L123.5,50z"/>
	<path class="st2" d="M131.3,49.9c1.9,0,3,1.4,3,3.3c0,1.9-1.1,3.3-3,3.3c-1.9,0-3-1.3-3-3.3C128.3,51.3,129.4,49.9,131.3,49.9z
		 M131.3,55.6c1.4,0,2.1-1.2,2.1-2.5c0-1.3-0.7-2.5-2.1-2.5c-1.4,0-2.1,1.2-2.1,2.5C129.3,54.4,129.9,55.6,131.3,55.6z"/>
	<path class="st2" d="M138.5,50h1.2l2.8,5.1h0V50h0.9v6.3h-1.2l-2.8-5.2h0v5.2h-0.9V50z"/>
	<path class="st2" d="M149.1,50.8h-2V50h4.8v0.8h-2v5.5h-0.9L149.1,50.8L149.1,50.8z"/>
	<path class="st2" d="M157.3,50h0.9l2.7,6.3h-1l-0.6-1.6h-3.1l-0.6,1.6h-0.9L157.3,50z M157.7,50.9l-1.3,3.1h2.5L157.7,50.9z"/>
	<path class="st2" d="M164.6,50h1.5c1.2,0,2.4,0.2,2.4,1.7c0,0.8-0.6,1.3-1.3,1.4v0c0.3,0.1,0.4,0.2,0.6,0.6l1.2,2.5h-1l-1-2.2
		c-0.3-0.6-0.6-0.6-1.1-0.6h-0.5v2.8h-0.9L164.6,50L164.6,50z M165.5,52.7h0.8c0.9,0,1.4-0.4,1.4-1c0-0.6-0.4-0.9-1.3-0.9h-0.9V52.7
		z"/>
	<path class="st2" d="M173,50h0.9v6.3H173V50z"/>
	<path class="st2" d="M181.1,49.9c1.9,0,3,1.4,3,3.3c0,1.9-1.1,3.3-3,3.3s-3-1.3-3-3.3C178,51.3,179.2,49.9,181.1,49.9z M181.1,55.6
		c1.4,0,2.1-1.2,2.1-2.5c0-1.3-0.7-2.5-2.1-2.5c-1.4,0-2.1,1.2-2.1,2.5C179,54.4,179.6,55.6,181.1,55.6z"/>
</g>
<g>
	<path class="st2" d="M66.6,30.1c-3.9,0-5.8,3.3-5.8,6.9c0,3.5,1.8,6.9,5.8,6.9c4.1,0,5.8-3.4,5.8-6.9
		C72.4,33.4,70.5,30.1,66.6,30.1z"/>
	<path class="st2" d="M2.1,1.9V78h76.1V1.9H2.1z M15.1,46.2c-5.6,0-9.3-3.6-9.3-9.2c0-5.5,4-9.1,9.4-9.1c1.4,0,2.7,0.2,4,0.8
		l-0.2,2.5c-1.1-0.7-2.4-1-3.7-1c-4.1,0-6.8,2.9-6.8,6.9c0,4.2,3,6.9,6.7,6.9c1.3,0,3-0.3,3.9-0.9l0.2,2.5
		C17.8,46.1,16.2,46.2,15.1,46.2z M29.8,45.9h-3.2l-6.7-17.7h2.8l5.5,15.5h0.1l5.6-15.5h2.7L29.8,45.9z M56.6,45.9h-2.5V30.6H54
		l-5.9,15.3h-2.5l-5.9-15.3h0v15.3h-2.5V28.2h4.2L47,42.9l5.5-14.7h4.2L56.6,45.9L56.6,45.9z M66.6,46.2c-5.4,0-8.5-3.8-8.5-9.2
		c0-5.3,3.1-9.2,8.5-9.2c5.4,0,8.5,3.9,8.5,9.2C75.1,42.4,72,46.2,66.6,46.2z"/>
</g>
</svg>
