<?xml version="1.0" encoding="utf-8"?>
<!-- Generator: Adobe Illustrator 21.1.0, SVG Export Plug-In . SVG Version: 6.00 Build 0)  -->
<svg version="1.1" id="Layer_1" xmlns="http://www.w3.org/2000/svg" xmlns:xlink="http://www.w3.org/1999/xlink" x="0px" y="0px"
	 viewBox="0 0 612 149" style="enable-background:new 0 0 612 149;" xml:space="preserve">
<style type="text/css">
	.st0{fill:#3A6F8F;stroke:#3A6F8F;stroke-width:0.5;stroke-miterlimit:10;}
	.st1{fill:#00B6DE;}
	.st2{fill:#3A6F8F;}
</style>
<title>logo</title>
<line class="st0" x1="362.4" y1="-0.1" x2="361.7" y2="149"/>
<g>
	<g>
		<path class="st1" d="M504.1,42.9c-1.5,1.6-3.6,2.5-5.8,2.5c-1.3,0-2.7-0.3-3.9-0.8c-1.2-0.5-2.2-1.3-3.1-2.2c-0.9-1-1.5-2.1-2-3.3
			c-0.5-1.3-0.8-2.7-0.8-4.2c0-2.7,1-5.3,2.9-7.3c0.9-0.9,2-1.7,3.3-2.2c1.2-0.5,2.6-0.8,3.9-0.8c1.7,0,3.5,0.4,5,1.2
			c1.3,0.8,2.4,1.9,3.1,3.3l-3,2.2c-0.5-1-1.2-1.8-2.2-2.4c-0.9-0.5-2-0.8-3.1-0.8c-0.8,0-1.7,0.2-2.4,0.5c-0.8,0.4-1.4,0.9-2,1.5
			c-0.5,0.7-0.9,1.4-1.2,2.2c-0.3,0.9-0.4,1.7-0.4,2.6c0,0.9,0.2,1.8,0.5,2.7c0.3,0.8,0.7,1.5,1.3,2.2c0.5,0.6,1.2,1.1,2,1.5
			c0.8,0.4,1.6,0.5,2.4,0.5c2.2,0,4.2-1.1,5.5-2.8v-1.4H500v-2.9h7.5v10.6h-3.3L504.1,42.9L504.1,42.9z"/>
		<path class="st1" d="M519,45.5c-1.1,0-2.3-0.2-3.3-0.6c-1.9-0.8-3.4-2.3-4.1-4.2c-0.4-1-0.6-2-0.6-3c0-1,0.2-2.1,0.5-3.1
			c0.4-0.9,0.9-1.8,1.6-2.5c0.7-0.7,1.6-1.3,2.5-1.7c1.1-0.4,2.2-0.7,3.4-0.6c1.1,0,2.3,0.2,3.3,0.6c0.9,0.4,1.8,1,2.5,1.7
			c0.7,0.7,1.2,1.6,1.6,2.5c0.4,0.9,0.5,2,0.5,3c0,0.3,0,0.5,0,0.7c0,0.2,0,0.4,0,0.6h-11.7c0,0.6,0.2,1.1,0.4,1.6
			c0.2,0.5,0.5,0.9,0.9,1.2c0.4,0.3,0.8,0.6,1.3,0.8c0.5,0.2,1,0.3,1.4,0.3c0.8,0,1.5-0.2,2.2-0.6c0.6-0.3,1.1-0.9,1.4-1.5l3.3,0.9
			c-0.6,1.2-1.5,2.2-2.7,2.9C522.1,45.2,520.6,45.5,519,45.5z M522.9,36.3c0-1-0.5-2-1.3-2.8c-1.5-1.4-3.9-1.4-5.4,0
			c-0.4,0.3-0.7,0.7-0.9,1.2c-0.2,0.5-0.4,1-0.4,1.5L522.9,36.3z"/>
		<path class="st1" d="M539.8,44.4c-0.6,0.3-1.3,0.5-2,0.7c-0.8,0.2-1.6,0.4-2.4,0.4c-0.5,0-1-0.1-1.5-0.2c-0.5-0.1-0.9-0.4-1.3-0.7
			c-0.4-0.3-0.7-0.7-0.9-1.2c-0.2-0.6-0.3-1.1-0.3-1.7v-8.8h-2v-3h2V25h3.9v4.9h3.2v3h-3.2v7.5c0,0.4,0.1,0.9,0.4,1.2
			c0.3,0.2,0.7,0.3,1,0.3c0.4,0,0.8-0.1,1.2-0.2l0.9-0.4L539.8,44.4z"/>
	</g>
	<g>
		<g>
			<path class="st1" d="M502.4,54.4c-0.2-0.2-0.5-0.4-0.7-0.5c-0.4-0.3-0.9-0.5-1.3-0.7c-0.5-0.2-1.1-0.4-1.7-0.5
				c-0.6-0.2-1.2-0.2-1.8-0.2c-0.9-0.1-1.7,0.1-2.5,0.6c-0.6,0.4-0.9,1-0.8,1.7c0,0.4,0.1,0.7,0.3,1.1c0.2,0.3,0.6,0.6,0.9,0.8
				c0.5,0.2,1,0.4,1.5,0.6l2,0.5c1,0.3,1.9,0.6,2.8,0.9c0.8,0.3,1.5,0.7,2.1,1.2c0.6,0.5,1,1,1.3,1.7c0.3,0.8,0.5,1.6,0.5,2.4
				c0,1-0.2,2-0.6,2.8c-0.4,0.8-1,1.5-1.7,2c-0.7,0.5-1.6,0.9-2.4,1.1c-0.9,0.2-1.9,0.3-2.9,0.3c-1.6,0-3.1-0.2-4.6-0.7
				c-1.5-0.4-2.8-1.1-4.1-2l1.8-3.5c0.3,0.3,0.6,0.5,0.9,0.7c0.5,0.3,1.1,0.6,1.6,0.8c0.7,0.3,1.4,0.5,2.1,0.7
				c0.8,0.2,1.5,0.3,2.3,0.3c2.2,0,3.3-0.7,3.3-2.1c0-0.4-0.1-0.8-0.4-1.1c-0.3-0.3-0.7-0.6-1.1-0.8c-0.5-0.3-1.1-0.5-1.7-0.6
				l-2.2-0.6c-0.9-0.2-1.7-0.5-2.6-0.9c-0.7-0.3-1.3-0.7-1.8-1.1c-0.5-0.4-0.8-0.9-1.1-1.5c-0.2-0.6-0.4-1.3-0.4-2
				c0-1,0.2-1.9,0.6-2.8c0.4-0.8,0.9-1.4,1.6-2c0.7-0.6,1.5-1,2.4-1.2c1-0.3,1.9-0.4,2.9-0.4c1.4,0,2.7,0.2,4,0.7
				c1.1,0.4,2.2,1,3.2,1.6L502.4,54.4z"/>
			<path class="st1" d="M532.7,69.6h-3.9v-8.5c0.1-0.9-0.1-1.9-0.6-2.7c-0.4-0.6-1-0.9-1.7-0.8c-0.8,0-1.6,0.3-2.2,0.9
				c-0.7,0.6-1.2,1.4-1.4,2.3v8.9h-3.9v-8.5c0-0.9-0.2-1.8-0.7-2.6c-0.4-0.6-1-0.9-1.7-0.8c-0.8,0-1.6,0.3-2.2,0.8
				c-0.7,0.6-1.2,1.4-1.5,2.3v8.9h-3.9V54.4h3.5v2.8c0.5-1,1.3-1.8,2.3-2.3c1-0.5,2.2-0.8,3.4-0.8c1.1-0.1,2.1,0.3,3,0.9
				c0.7,0.6,1.1,1.4,1.3,2.3c0.6-1,1.4-1.8,2.3-2.4c1-0.6,2.1-0.8,3.3-0.8c0.8,0,1.6,0.2,2.3,0.5c0.6,0.3,1.1,0.8,1.4,1.4
				c0.3,0.6,0.6,1.3,0.7,2c0.1,0.7,0.2,1.5,0.2,2.2L532.7,69.6z"/>
		</g>
		<g>
			<path class="st1" d="M541.9,69.9c-0.7,0-1.4-0.1-2.1-0.4c-0.6-0.2-1.2-0.6-1.7-1c-0.5-0.4-0.8-0.9-1.1-1.5
				c-0.3-0.6-0.4-1.3-0.4-2c0-0.7,0.2-1.4,0.5-2c0.3-0.6,0.8-1.1,1.3-1.6c0.6-0.4,1.3-0.8,2-1c0.8-0.3,1.7-0.4,2.6-0.4
				c0.7,0,1.3,0.1,2,0.2c0.6,0.1,1.2,0.3,1.7,0.5v-0.9c0.1-0.9-0.3-1.7-0.9-2.3c-0.7-0.6-1.6-0.9-2.5-0.8c-0.8,0-1.6,0.1-2.4,0.4
				c-0.8,0.3-1.6,0.8-2.4,1.3l-1.2-2.5c1.9-1.3,4.1-2,6.3-2c1.8-0.1,3.7,0.5,5.1,1.6c1.3,1.2,1.9,2.9,1.8,4.7v4.7
				c0,0.3,0,0.6,0.2,0.9c0.2,0.2,0.4,0.3,0.7,0.3v3.3c-0.6,0.1-1.1,0.2-1.7,0.2c-0.6,0-1.2-0.1-1.7-0.5c-0.4-0.3-0.7-0.8-0.7-1.3
				v-0.8c-0.7,0.8-1.5,1.5-2.5,2C544,69.6,543,69.8,541.9,69.9z M543.1,67c0.7,0,1.3-0.1,2-0.4c0.5-0.2,1-0.5,1.4-0.9
				c0.4-0.2,0.6-0.7,0.6-1.1v-1.7c-0.5-0.2-1-0.3-1.5-0.4c-0.5-0.1-1-0.2-1.6-0.2c-0.9,0-1.7,0.2-2.5,0.7c-0.6,0.4-1,1-1,1.7
				c0,0.6,0.3,1.2,0.8,1.6C541.8,66.8,542.4,67,543.1,67z"/>
			<path class="st1" d="M565,57.7c-1.1,0-2.2,0.2-3.2,0.7c-0.9,0.4-1.6,1.1-2,2v9.2H556V54.3h3.6v3.3c0.3-0.5,0.6-1,1-1.4
				c0.4-0.4,0.8-0.8,1.2-1.1c0.4-0.3,0.8-0.5,1.3-0.7c0.4-0.2,0.8-0.2,1.3-0.3h0.8L565,57.7z"/>
			<path class="st1" d="M577.8,68.8c-0.6,0.3-1.3,0.5-2,0.7c-0.8,0.2-1.6,0.4-2.4,0.4c-0.5,0-1-0.1-1.5-0.2
				c-0.5-0.1-0.9-0.4-1.3-0.7c-0.4-0.3-0.7-0.7-0.9-1.2c-0.2-0.6-0.3-1.1-0.3-1.7v-8.8h-2v-3h2v-4.9h3.9v4.9h3.2v3h-3.2v7.5
				c0,0.4,0.1,0.9,0.4,1.2c0.3,0.3,0.7,0.4,1.1,0.4c0.4,0,0.8-0.1,1.2-0.2l0.9-0.4L577.8,68.8z"/>
			<path class="st1" d="M588,69.9c-1.1,0-2.3-0.2-3.3-0.6c-1.9-0.8-3.4-2.3-4.1-4.2c-0.4-1-0.6-2-0.6-3c0-1,0.2-2.1,0.5-3.1
				c0.4-0.9,0.9-1.8,1.6-2.5c0.7-0.7,1.6-1.3,2.5-1.7c1.1-0.4,2.2-0.7,3.4-0.6c1.1,0,2.3,0.2,3.3,0.6c0.9,0.4,1.8,1,2.5,1.7
				c0.7,0.7,1.2,1.6,1.6,2.5c0.4,1,0.5,2,0.5,3c0,0.3,0,0.5,0,0.7c0,0.2,0,0.4,0,0.6h-11.7c0,0.6,0.2,1.1,0.4,1.6
				c0.4,0.9,1.2,1.6,2.2,2c0.5,0.2,1,0.3,1.4,0.3c0.8,0,1.5-0.2,2.2-0.6c0.6-0.3,1.1-0.9,1.4-1.5l3.3,0.9c-0.6,1.2-1.5,2.2-2.7,2.9
				C591.1,69.6,589.5,69.9,588,69.9z M591.9,60.7c0-1-0.5-2-1.3-2.8c-1.5-1.4-3.9-1.4-5.4,0c-0.4,0.3-0.7,0.7-0.9,1.2
				c-0.2,0.5-0.4,1-0.4,1.5L591.9,60.7z"/>
			<path class="st1" d="M608.9,57.7c-1.1,0-2.2,0.2-3.2,0.7c-0.9,0.4-1.6,1.1-2,2v9.2h-3.9V54.3h3.6v3.3c0.3-0.5,0.6-1,1-1.4
				c0.4-0.4,0.8-0.8,1.2-1.1c0.4-0.3,0.8-0.5,1.3-0.7c0.4-0.2,0.8-0.2,1.3-0.3h0.8L608.9,57.7z"/>
		</g>
	</g>
	<g>
		<path class="st1" d="M496.4,73.3h3.5l7.8,20.6h-4.1l-2-5.1h-7.2l-2,5.1h-4.1L496.4,73.3z M501.1,86l-2.9-8.1l-3,8.1H501.1z"/>
		<path class="st1" d="M519.8,94.3c-1.1,0-2.2-0.3-3.1-0.8c-0.9-0.5-1.6-1.3-2.2-2.2V94h-3.4V72.8h3.9v8.7c0.5-0.9,1.2-1.6,2.1-2.2
			c0.9-0.5,2-0.8,3.1-0.8c0.9,0,1.9,0.2,2.7,0.6c0.8,0.4,1.5,1,2.1,1.7c0.6,0.7,1.1,1.6,1.4,2.5c0.3,1,0.5,2,0.5,3
			c0,1.1-0.2,2.1-0.5,3.1c-0.3,0.9-0.9,1.8-1.5,2.5c-0.6,0.7-1.4,1.3-2.3,1.7C521.8,94.1,520.8,94.3,519.8,94.3z M518.8,91
			c0.6,0,1.2-0.1,1.7-0.4c0.5-0.2,1-0.6,1.3-1c0.4-0.4,0.7-0.9,0.9-1.4c0.2-0.6,0.3-1.1,0.3-1.7c0-0.6-0.1-1.2-0.3-1.8
			c-0.2-0.5-0.5-1-0.8-1.5c-0.4-0.4-0.8-0.8-1.3-1c-0.5-0.3-1-0.4-1.6-0.4c-0.9,0-1.7,0.3-2.3,0.9c-0.7,0.6-1.2,1.3-1.6,2.1v3.6
			c0.1,0.4,0.3,0.7,0.6,1.1c0.3,0.3,0.6,0.6,0.9,0.8c0.3,0.2,0.7,0.4,1.1,0.5C518,90.9,518.4,91,518.8,91L518.8,91z"/>
		<path class="st1" d="M538.1,94.3c-1.1,0-2.3-0.2-3.3-0.6c-1.9-0.8-3.4-2.3-4.1-4.2c-0.7-1.9-0.7-4.1,0-6c0.4-0.9,0.9-1.8,1.6-2.5
			c0.7-0.7,1.6-1.3,2.5-1.7c1.1-0.4,2.2-0.7,3.3-0.6c1.1,0,2.3,0.2,3.3,0.6c0.9,0.4,1.8,1,2.5,1.7c0.7,0.7,1.2,1.6,1.6,2.5
			c0.7,1.9,0.7,4.1,0,6c-0.4,0.9-0.9,1.8-1.6,2.5c-0.7,0.7-1.6,1.3-2.5,1.7C540.4,94.1,539.3,94.3,538.1,94.3z M534.2,86.5
			c0,0.6,0.1,1.2,0.3,1.8c0.2,0.5,0.5,1,0.8,1.4c0.4,0.4,0.8,0.7,1.3,0.9c1,0.4,2.1,0.4,3.1,0c0.5-0.2,0.9-0.5,1.3-0.9
			c0.4-0.4,0.7-0.9,0.8-1.4c0.2-0.6,0.3-1.3,0.3-2c0-0.6-0.1-1.2-0.3-1.8c-0.2-0.5-0.5-1-0.8-1.4c-0.4-0.4-0.8-0.7-1.3-0.9
			c-0.5-0.2-1-0.3-1.6-0.3c-0.5,0-1.1,0.1-1.6,0.4c-0.5,0.2-0.9,0.6-1.3,1c-0.4,0.4-0.7,0.9-0.8,1.4
			C534.3,85.1,534.2,85.8,534.2,86.5L534.2,86.5z"/>
		<path class="st1" d="M554.8,94.3c-1.4,0.1-2.7-0.5-3.6-1.5c-0.9-1.3-1.3-2.9-1.2-4.5v-9.5h3.9v8.7c0,2.3,0.8,3.5,2.5,3.5
			c0.8,0,1.5-0.2,2.2-0.7c0.8-0.5,1.4-1.2,1.7-2.1v-9.5h3.9v10.8c0,0.3,0,0.6,0.2,0.9c0.2,0.2,0.4,0.3,0.7,0.3V94
			c-0.3,0.1-0.6,0.1-1,0.1h-0.7c-0.6,0-1.2-0.1-1.7-0.5c-0.4-0.3-0.7-0.8-0.8-1.3v-1.2c-0.6,1-1.5,1.8-2.6,2.3
			C557.3,94,556.1,94.3,554.8,94.3z"/>
		<path class="st1" d="M578.8,93.2c-0.6,0.3-1.3,0.5-2,0.7c-0.8,0.2-1.6,0.4-2.4,0.4c-0.5,0-1-0.1-1.5-0.2c-0.5-0.1-0.9-0.4-1.3-0.7
			c-0.4-0.3-0.7-0.7-0.9-1.2c-0.2-0.6-0.3-1.1-0.3-1.7v-8.8h-2v-3h2v-4.9h3.9v4.9h3.2v3h-3.2v7.5c0,0.4,0.1,0.9,0.4,1.2
			c0.3,0.2,0.7,0.3,1,0.3c0.4,0,0.8-0.1,1.2-0.2l0.9-0.4L578.8,93.2z"/>
	</g>
	<g>
		<path class="st1" d="M425.3,69.5c4.6,0,8.4-3.7,8.4-8.4c0-4.6-3.7-8.4-8.4-8.4c-4.6,0-8.4,3.7-8.4,8.4S420.7,69.5,425.3,69.5
			L425.3,69.5"/>
		<path class="st1" d="M463.3,77.5c-1.8,0-3.6-0.3-5.3-0.9l-13.8,13.8l-13.7-13.7c-7.1,2.4-14.8-0.3-18.9-6.6
			c-0.2,1.9-0.3,3.9-0.3,5.9c0,23.5,14.8,42.4,33,42.4s33-19,33-42.4c0-2-0.1-3.9-0.3-5.9C474,74.7,468.9,77.5,463.3,77.5"/>
		<path class="st1" d="M463.3,69.5c4.6,0,8.4-3.7,8.4-8.3s-3.7-8.4-8.3-8.4s-8.4,3.7-8.4,8.3c0,0,0,0,0,0
			C455,65.7,458.7,69.5,463.3,69.5"/>
		<path class="st1" d="M441.6,61.2c0,4.1-1.5,8-4.3,11l6.9,6.9l7-7c-6-6.7-5.3-17,1.4-23c5.1-4.6,12.6-5.4,18.6-2.1V24.2l-10.6,15
			c-9.4-7.3-22.6-7.5-32.2-0.5l-10.3-14.5v22.2c8.1-3.9,17.9-0.4,21.8,7.7C441,56.3,441.5,58.7,441.6,61.2"/>
	</g>
	<g>
		<path class="st1" d="M505.4,118.3v-13.7l-5.3,10.2h-2.2l-5.3-10.2v13.7h-4V97.6h4.3l6.1,11.7l6.2-11.7h4.3v20.6H505.4z"/>
		<path class="st1" d="M521.6,118.6c-1.1,0-2.3-0.2-3.3-0.6c-1.9-0.8-3.4-2.3-4.1-4.2c-0.7-1.9-0.7-4.1,0-6c0.4-0.9,0.9-1.8,1.6-2.5
			c0.7-0.7,1.6-1.3,2.5-1.7c1.1-0.4,2.2-0.7,3.3-0.6c1.1,0,2.3,0.2,3.3,0.6c0.9,0.4,1.8,1,2.5,1.7c0.7,0.7,1.2,1.6,1.6,2.5
			c0.7,1.9,0.7,4.1,0,6c-0.4,0.9-0.9,1.8-1.6,2.5c-0.7,0.7-1.6,1.3-2.5,1.7C523.9,118.4,522.8,118.6,521.6,118.6z M517.7,110.7
			c0,0.6,0.1,1.2,0.3,1.8c0.2,0.5,0.5,1,0.8,1.4c0.4,0.4,0.8,0.7,1.3,0.9c1,0.4,2.1,0.4,3.1,0c0.5-0.2,0.9-0.5,1.3-0.9
			c0.4-0.4,0.7-0.9,0.8-1.4c0.2-0.6,0.3-1.3,0.3-2c0-0.6-0.1-1.2-0.3-1.8c-0.2-0.5-0.5-1-0.8-1.4c-0.4-0.4-0.8-0.7-1.3-0.9
			c-0.5-0.2-1-0.3-1.6-0.3c-0.5,0-1.1,0.1-1.6,0.4c-0.5,0.2-0.9,0.6-1.3,1c-0.4,0.4-0.7,0.9-0.8,1.4
			C517.8,109.4,517.7,110,517.7,110.7L517.7,110.7z"/>
		<path class="st1" d="M547.8,118.3h-3.9v-8.5c0.1-0.9-0.2-1.9-0.6-2.7c-0.4-0.6-1.1-0.9-1.8-0.8c-0.4,0-0.8,0.1-1.2,0.2
			c-0.4,0.2-0.8,0.4-1.2,0.6c-0.4,0.3-0.7,0.6-1,1c-0.3,0.4-0.5,0.8-0.6,1.3v8.9h-3.9V103h3.5v2.8c0.6-1,1.5-1.8,2.5-2.3
			c1.1-0.6,2.3-0.8,3.6-0.8c0.8,0,1.6,0.1,2.3,0.5c0.6,0.3,1.1,0.8,1.4,1.4c0.3,0.6,0.6,1.3,0.7,2c0.1,0.7,0.2,1.5,0.2,2.2
			L547.8,118.3z"/>
		<path class="st1" d="M559.8,118.6c-1.1,0-2.3-0.2-3.3-0.6c-0.9-0.4-1.8-1-2.5-1.7c-0.7-0.7-1.3-1.6-1.6-2.5c-0.4-1-0.6-2-0.6-3
			c0-1,0.2-2.1,0.5-3.1c0.4-0.9,0.9-1.8,1.6-2.5c0.7-0.7,1.6-1.3,2.5-1.7c1.1-0.4,2.2-0.7,3.4-0.6c1.2,0,2.3,0.2,3.4,0.7
			c0.9,0.4,1.8,1,2.5,1.7c0.7,0.7,1.2,1.6,1.6,2.5c0.4,1,0.5,2,0.5,3c0,0.3,0,0.5,0,0.7c0,0.2,0,0.4,0,0.6H556
			c0,0.6,0.2,1.1,0.4,1.6c0.2,0.5,0.5,0.9,0.9,1.2c0.4,0.3,0.8,0.6,1.3,0.8c0.5,0.2,1,0.3,1.4,0.3c0.8,0,1.5-0.2,2.2-0.6
			c0.6-0.3,1.1-0.9,1.4-1.5l3.3,0.9c-0.6,1.2-1.5,2.2-2.7,2.9C562.9,118.3,561.3,118.7,559.8,118.6z M563.7,109.4
			c-0.1-1-0.5-2-1.3-2.8c-1.5-1.4-3.9-1.4-5.4,0c-0.4,0.3-0.7,0.7-0.9,1.2c-0.2,0.5-0.4,1-0.4,1.5L563.7,109.4z"/>
		<path class="st1" d="M571.5,121.2c0.3,0.1,0.6,0.2,1,0.2h0.8c0.2,0,0.5,0,0.7-0.1c0.2-0.1,0.4-0.3,0.6-0.5c0.2-0.3,0.4-0.6,0.5-1
			c0.2-0.4,0.4-1,0.5-1.6l-6-15.3h4l4.1,11.9l3.7-11.9h3.7l-6.4,18.3c-0.4,1.1-1.1,2-2,2.6c-1,0.7-2.1,1.1-3.3,1c-0.3,0-0.6,0-0.9,0
			c-0.3-0.1-0.7-0.1-1-0.3L571.5,121.2z"/>
		<g>
			<path class="st1" d="M586.3,118.4v-2.7h2.1v2.7H586.3z"/>
			<path class="st1" d="M590.9,113.5c0-0.7,0.1-1.3,0.4-2c0.2-0.6,0.6-1.1,1-1.6c0.5-0.5,1-0.9,1.6-1.1c0.7-0.3,1.4-0.4,2.2-0.4
				c1,0,1.9,0.2,2.7,0.7c0.7,0.4,1.3,1.1,1.7,1.8l-2.5,0.7c-0.2-0.4-0.5-0.6-0.8-0.8c-0.4-0.2-0.8-0.3-1.2-0.3c-0.4,0-0.7,0.1-1,0.2
				c-0.3,0.1-0.6,0.3-0.8,0.6c-0.2,0.3-0.4,0.6-0.5,0.9c-0.1,0.4-0.2,0.8-0.2,1.2c0,0.4,0.1,0.8,0.2,1.2c0.1,0.3,0.3,0.7,0.5,0.9
				c0.2,0.3,0.5,0.5,0.8,0.6c0.3,0.1,0.7,0.2,1,0.2c0.4,0,0.9-0.1,1.3-0.3c0.3-0.2,0.6-0.5,0.8-0.8l2.5,0.7
				c-0.4,0.8-0.9,1.4-1.7,1.8c-0.8,0.5-1.8,0.7-2.8,0.7c-0.7,0-1.5-0.1-2.2-0.4c-1.2-0.5-2.2-1.5-2.7-2.8
				C591,114.8,590.9,114.1,590.9,113.5z"/>
			<path class="st1" d="M605.7,118.6c-0.5,0-0.9-0.1-1.3-0.2c-0.4-0.1-0.8-0.4-1.1-0.7c-0.3-0.3-0.5-0.6-0.7-1
				c-0.2-0.4-0.3-0.8-0.3-1.2c0-0.4,0.1-0.9,0.3-1.3c0.2-0.4,0.5-0.7,0.9-1c0.4-0.3,0.9-0.5,1.3-0.6c0.5-0.2,1.1-0.2,1.7-0.2
				c0.4,0,0.9,0,1.3,0.1c0.4,0.1,0.8,0.2,1.1,0.3v-0.6c0-0.6-0.2-1.1-0.5-1.5c-0.5-0.4-1-0.6-1.6-0.5c-0.5,0-1.1,0.1-1.5,0.3
				c-0.5,0.2-1.1,0.5-1.5,0.8l-0.8-1.6c1.2-0.8,2.6-1.3,4.1-1.3c1.2-0.1,2.4,0.3,3.3,1c0.8,0.8,1.2,1.9,1.2,3v3c0,0.2,0,0.4,0.1,0.6
				c0.1,0.1,0.3,0.2,0.5,0.2v2.1c-0.4,0.1-0.7,0.1-1.1,0.1c-0.4,0-0.8-0.1-1.1-0.3c-0.3-0.2-0.4-0.5-0.5-0.8v-0.5
				c-0.4,0.6-1,1-1.6,1.3C607.1,118.4,606.4,118.6,605.7,118.6z M606.4,116.7c0.4,0,0.8-0.1,1.2-0.2c0.3-0.1,0.7-0.3,0.9-0.6
				c0.2-0.2,0.4-0.4,0.4-0.7V114c-0.3-0.1-0.6-0.2-1-0.3c-0.3-0.1-0.7-0.1-1-0.1c-0.6,0-1.1,0.1-1.6,0.5c-0.4,0.2-0.6,0.7-0.6,1.1
				c0,0.4,0.2,0.8,0.5,1.1C605.5,116.6,605.9,116.7,606.4,116.7L606.4,116.7L606.4,116.7z"/>
		</g>
	</g>
</g>
<g>
	<path class="st2" d="M184.1,37c3.2,0,5.9,2.6,5.9,5.8c0,0.2,0,0.3,0,0.5c0,3.2-2.6,5.9-5.9,5.9s-5.9-2.6-5.9-5.9
		c-0.2-3.2,2.2-6,5.4-6.3C183.8,37,184,37,184.1,37z M184.1,48.1c2.8,0,4-2.3,4-4.8s-1.3-4.8-4-4.8s-4,2.3-4,4.8
		S181.3,48.1,184.1,48.1L184.1,48.1z"/>
	<path class="st2" d="M202.5,37.2h2.4l5.4,9.8l0,0v-9.8h1.8v12.2h-2.2l-5.5-10.1l0,0v10.1h-1.8L202.5,37.2L202.5,37.2z"/>
	<path class="st2" d="M227.6,38.7h-3.8v-1.5h9.3v1.5h-3.8v10.7h-1.8L227.6,38.7z"/>
	<path class="st2" d="M247.8,37.2h1.8l5.2,12.2h-2l-1.3-3.1h-6l-1.2,3.1h-1.8L247.8,37.2z M248.7,38.8l-2.4,6h4.9L248.7,38.8z"/>
	<path class="st2" d="M266.5,37.2h3c2.4,0,4.7,0.4,4.7,3.3c0,1.4-1.1,2.6-2.5,2.8l0,0c0.5,0.2,0.8,0.5,1.2,1.2l2.3,4.9h-2l-2-4.2
		c-0.5-1.2-1.1-1.2-2-1.2h-1.1v5.4h-1.8L266.5,37.2z M268.2,42.4h1.5c1.7,0,2.6-0.7,2.6-2s-0.8-1.8-2.4-1.8h-1.7V42.4z"/>
	<path class="st2" d="M287.3,37.2h1.8v12.2h-1.8V37.2z"/>
	<path class="st2" d="M307.4,37c3.2,0,5.9,2.6,5.9,5.8c0,0.2,0,0.3,0,0.5c0,3.2-2.6,5.9-5.9,5.9s-5.9-2.6-5.9-5.9
		c-0.2-3.2,2.2-6,5.4-6.3C307.1,37,307.3,37,307.4,37z M307.4,48.1c2.8,0,4-2.3,4-4.8s-1.3-4.8-4-4.8s-4,2.3-4,4.8
		S304.6,48.1,307.4,48.1L307.4,48.1z"/>
	<path class="st2" d="M184.4,67.8c-0.7-0.3-1.5-0.5-2.3-0.5c-1,0-2.1,0.4-2.1,1.6c0,2.3,5.3,1.8,5.3,5.9c0,2.6-2,3.6-4.5,3.6
		c-0.9,0-1.7-0.2-2.5-0.5l0.2-1.6c0.8,0.3,1.7,0.5,2.5,0.6c1.2,0.1,2.3-0.7,2.4-2c0,0,0,0,0,0c0-2.7-5.2-2-5.2-5.9
		c0-2.2,1.7-3.3,3.9-3.3c0.9,0,1.8,0.1,2.6,0.4L184.4,67.8z"/>
	<path class="st2" d="M192.8,65.9h6.8v1.5h-5.1V71h4.6v1.5h-4.6v4h5.1v1.4h-6.8L192.8,65.9z"/>
	<path class="st2" d="M216,68c-0.8-0.5-1.6-0.7-2.5-0.7c-2.6,0-4.8,2.1-4.8,4.8s2.1,4.8,4.8,4.8l0,0c0.9,0,1.8-0.2,2.7-0.6l0.1,1.7
		c-0.9,0.3-1.8,0.5-2.8,0.4c-3.3,0.2-6.2-2.3-6.4-5.6c0-0.3,0-0.5,0-0.8c-0.1-3.4,2.5-6.2,5.9-6.3c0.2,0,0.4,0,0.6,0
		c0.9,0,1.9,0.2,2.8,0.5L216,68z"/>
	<path class="st2" d="M232.9,73.1c0,3.4-1.7,5.3-4.8,5.3c-3,0-4.7-1.8-4.7-5.3v-7.2h1.8v6.9c0,2.3,0.7,3.9,3,3.9c2.2,0,3-1.6,3-3.9
		v-6.9h1.8L232.9,73.1z"/>
	<path class="st2" d="M241.1,65.9h3c2.4,0,4.7,0.4,4.7,3.3c0,1.4-1,2.6-2.4,2.8l0,0c0.5,0.2,0.8,0.5,1.2,1.2l2.2,4.8h-2l-2-4.2
		c-0.5-1.2-1.1-1.2-2-1.2h-1.1v5.4h-1.8L241.1,65.9z M242.8,71.2h1.5c1.7,0,2.6-0.7,2.6-2s-0.8-1.8-2.4-1.8h-1.7L242.8,71.2
		L242.8,71.2z"/>
	<path class="st2" d="M257,65.9h1.8v12.1H257V65.9z"/>
	<path class="st2" d="M269.4,67.5h-3.8v-1.5h9.3v1.5h-3.8v10.6h-1.8L269.4,67.5L269.4,67.5z"/>
	<path class="st2" d="M281.8,65.9h1.8v12.1h-1.8V65.9z"/>
	<path class="st2" d="M291.9,65.9h6.8v1.5h-5.1V71h4.6v1.5h-4.6v4h5.1v1.4h-6.8V65.9z"/>
	<path class="st2" d="M312.2,67.8c-0.7-0.3-1.5-0.5-2.3-0.5c-1,0-2.1,0.4-2.1,1.6c0,2.3,5.3,1.8,5.3,5.9c0,2.6-2,3.6-4.5,3.6
		c-0.9,0-1.7-0.2-2.5-0.5l0.2-1.6c0.8,0.3,1.7,0.5,2.5,0.6c1.2,0.1,2.3-0.7,2.4-2c0,0,0,0,0,0c0-2.7-5.3-2-5.3-5.9
		c0-2.2,1.7-3.3,3.9-3.3c0.9,0,1.8,0.1,2.6,0.4L312.2,67.8z"/>
	<path class="st2" d="M187.3,96.7c-0.8-0.5-1.6-0.7-2.5-0.7c-2.6,0-4.8,2.1-4.8,4.8s2.1,4.8,4.8,4.8c0.9,0,1.8-0.2,2.7-0.6l0.1,1.7
		c-0.9,0.3-1.8,0.5-2.8,0.4c-3.3,0.2-6.2-2.3-6.4-5.6c0-0.3,0-0.5,0-0.8c-0.1-3.4,2.5-6.2,5.9-6.3c0.2,0,0.4,0,0.6,0
		c0.9,0,1.9,0.2,2.8,0.5L187.3,96.7z"/>
	<path class="st2" d="M197.7,94.5c3.2,0,5.9,2.6,5.9,5.8c0,0.2,0,0.3,0,0.5c0,3.2-2.6,5.9-5.9,5.9s-5.9-2.6-5.9-5.9
		c-0.2-3.2,2.2-6,5.4-6.3C197.4,94.5,197.5,94.5,197.7,94.5z M197.7,105.6c2.8,0,4-2.3,4-4.8s-1.3-4.8-4-4.8s-4.1,2.3-4.1,4.8
		S194.9,105.6,197.7,105.6L197.7,105.6z"/>
	<path class="st2" d="M208.9,94.7h2.9l3.9,10.1l3.8-10.1h2.9V107h-1.8V96.4l0,0l-4,10.6h-1.7l-4-10.6l0,0V107H209L208.9,94.7z"/>
	<path class="st2" d="M228.3,94.7h2.9l3.9,10.1l3.8-10.1h2.9V107h-1.8V96.4l0,0l-4,10.6h-1.7l-4-10.6l0,0V107h-1.8L228.3,94.7z"/>
	<path class="st2" d="M247.6,94.7h1.8V107h-1.8V94.7z"/>
	<path class="st2" d="M260.9,96.6c-0.7-0.3-1.5-0.5-2.3-0.5c-1,0-2.1,0.4-2.1,1.6c0,2.3,5.3,1.8,5.3,5.9c0,2.6-2,3.6-4.5,3.6
		c-0.9,0-1.7-0.2-2.5-0.5l0.2-1.6c0.8,0.3,1.7,0.5,2.5,0.6c1.2,0.1,2.3-0.7,2.4-2c0,0,0,0,0,0c0-2.7-5.2-2-5.2-5.9
		c0-2.2,1.7-3.3,3.9-3.3c0.9,0,1.8,0.1,2.6,0.4L260.9,96.6z"/>
	<path class="st2" d="M272.5,96.6c-0.7-0.3-1.5-0.5-2.3-0.5c-1,0-2.1,0.4-2.1,1.6c0,2.3,5.3,1.8,5.3,5.9c0,2.6-2,3.6-4.5,3.6
		c-0.9,0-1.7-0.2-2.5-0.5l0.2-1.6c0.8,0.3,1.7,0.5,2.5,0.6c1.2,0.1,2.3-0.7,2.4-2c0,0,0,0,0,0c0-2.7-5.2-2-5.2-5.9
		c0-2.2,1.7-3.3,3.9-3.3c0.9,0,1.8,0.1,2.6,0.4L272.5,96.6z"/>
	<path class="st2" d="M278.5,94.7h1.8V107h-1.8V94.7z"/>
	<path class="st2" d="M291.5,94.5c3.2,0,5.9,2.6,5.9,5.8c0,0.2,0,0.3,0,0.5c0,3.2-2.6,5.9-5.9,5.9s-5.9-2.6-5.9-5.9
		c-0.2-3.2,2.2-6,5.4-6.3C291.2,94.5,291.4,94.5,291.5,94.5z M291.5,105.6c2.8,0,4-2.3,4-4.8s-1.3-4.8-4-4.8s-4.1,2.3-4.1,4.8
		S288.7,105.6,291.5,105.6L291.5,105.6z"/>
	<path class="st2" d="M302.7,94.7h2.3l5.4,9.8l0,0v-9.8h1.8V107h-2.2l-5.5-10.1l0,0V107h-1.8L302.7,94.7z"/>
</g>
<g>
	<path class="st2" d="M47.5,56.1c-7.6,0-11.3,6.5-11.3,13.4S39.5,83,47.5,83s11.3-6.6,11.3-13.4C58.8,62.7,55,56.1,47.5,56.1z"/>
	<path class="st2" d="M0,1.4v147.8h147.8V1.4H0z M47.5,87.4c-10.5,0-16.5-7.3-16.5-17.8S37,51.9,47.5,51.9S64,59.5,64,69.6
		S58,87.4,47.5,87.4L47.5,87.4z M76,87.4c-2.4-0.1-4.8-0.6-7-1.4l0.5-4.6c2.3,1,4.7,1.5,7.1,1.7c2.8,0,6.7-1.6,6.7-5.6
		c0-7.7-14.8-5.6-14.8-16.2c0-6.1,4.8-9.3,11-9.3c2.5,0,5,0.4,7.3,1.2l-0.7,4.5c-2-0.9-4.2-1.4-6.5-1.4c-2.8,0-6,1-6,4.6
		c0,6.6,14.8,5.1,14.8,16.4C88.5,84.4,82.9,87.4,76,87.4L76,87.4z M111.2,87.4c-10.9,0-18.1-7-18.1-17.9c0-10.6,7.7-17.6,18.2-17.6
		c2.7-0.1,5.3,0.4,7.8,1.5l-0.4,4.8c-2.1-1.3-4.6-2-7.1-2c-7-0.3-12.9,5.2-13.2,12.3c0,0.4,0,0.8,0,1.2c-0.3,7.1,5.1,13.1,12.2,13.4
		c0.3,0,0.5,0,0.8,0c2.6,0,5.2-0.6,7.5-1.7l0.3,4.8C116.6,87,113.9,87.4,111.2,87.4L111.2,87.4z"/>
</g>
</svg>
