<svg id="Layer_1" data-name="Layer 1" xmlns="http://www.w3.org/2000/svg" viewBox="0 0 312.98 76.35">
  <title>logo</title>
  <line x1="185.34" x2="184.99" y2="76.29" fill="none" stroke="#fff" stroke-miterlimit="10" stroke-width="0.5"/>
  <g>
    <g>
      <path d="M257.81,22a4,4,0,0,1-2.95,1.26,4.65,4.65,0,0,1-2-.42,4.93,4.93,0,0,1-1.59-1.15A5.46,5.46,0,0,1,250.24,20a5.71,5.71,0,0,1-.39-2.13,5.37,5.37,0,0,1,1.48-3.73A5.22,5.22,0,0,1,253,13a4.89,4.89,0,0,1,2-.42,5,5,0,0,1,2.55.62,4,4,0,0,1,1.6,1.68L257.61,16a2.85,2.85,0,0,0-1.12-1.21,3.09,3.09,0,0,0-1.57-.42,2.67,2.67,0,0,0-1.23.28,2.86,2.86,0,0,0-1,.77,3.62,3.62,0,0,0-.61,1.13,4.2,4.2,0,0,0-.22,1.35,4,4,0,0,0,.24,1.39,3.53,3.53,0,0,0,.65,1.12,3,3,0,0,0,1,.75,2.82,2.82,0,0,0,1.24.27A3.6,3.6,0,0,0,257.81,20v-.74h-2.13v-1.5h3.82v5.43h-1.69Z" fill="#fff"/>
      <path d="M265.42,23.32a4.33,4.33,0,0,1-1.7-.32,3.83,3.83,0,0,1-2.12-2.15,4.1,4.1,0,0,1-.29-1.53,4.34,4.34,0,0,1,.28-1.57,3.82,3.82,0,0,1,.82-1.29,3.9,3.9,0,0,1,1.3-.88,4.34,4.34,0,0,1,1.72-.33,4.23,4.23,0,0,1,1.7.33,3.91,3.91,0,0,1,1.28.88,3.71,3.71,0,0,1,.8,1.28,4.25,4.25,0,0,1,.28,1.52c0,.13,0,.25,0,.37a1.65,1.65,0,0,1,0,.3h-6a2.31,2.31,0,0,0,.22.82,2,2,0,0,0,.46.61,2,2,0,0,0,.64.39,2.09,2.09,0,0,0,.74.13,2.3,2.3,0,0,0,1.12-.29,1.54,1.54,0,0,0,.72-.77l1.71.48a3.47,3.47,0,0,1-1.38,1.47A4.27,4.27,0,0,1,265.42,23.32Zm2-4.7a2.07,2.07,0,0,0-.65-1.41,2,2,0,0,0-2.76,0,2,2,0,0,0-.44.61,2.11,2.11,0,0,0-.2.79Z" fill="#fff"/>
      <path d="M276.07,22.77a8.59,8.59,0,0,1-1,.36,4.13,4.13,0,0,1-1.22.18,2.84,2.84,0,0,1-.78-.1,1.73,1.73,0,0,1-.64-.34,1.63,1.63,0,0,1-.44-.59,2.14,2.14,0,0,1-.16-.89V16.91h-1V15.37h1V12.84h2v2.53h1.64v1.53h-1.64v3.81a.71.71,0,0,0,.22.59.82.82,0,0,0,.53.17,1.82,1.82,0,0,0,.61-.1l.48-.18Z" fill="#fff"/>
    </g>
    <g>
      <g>
        <path d="M256.91,27.9a2.62,2.62,0,0,0-.38-.28,4.54,4.54,0,0,0-.67-.35A5.91,5.91,0,0,0,255,27a3.77,3.77,0,0,0-.94-.12,2.11,2.11,0,0,0-1.27.31,1,1,0,0,0-.42.88.9.9,0,0,0,.16.54A1.35,1.35,0,0,0,253,29a3.85,3.85,0,0,0,.75.3l1,.28q.77.21,1.41.45a3.83,3.83,0,0,1,1.07.59,2.46,2.46,0,0,1,.68.86,2.83,2.83,0,0,1,.24,1.23,3,3,0,0,1-.32,1.45,2.68,2.68,0,0,1-.86,1,3.74,3.74,0,0,1-1.25.54,6.29,6.29,0,0,1-1.48.17,7.94,7.94,0,0,1-2.35-.36,7.25,7.25,0,0,1-2.08-1l.91-1.77a2.8,2.8,0,0,0,.48.35,7.35,7.35,0,0,0,.83.43,6.41,6.41,0,0,0,1.06.36,4.77,4.77,0,0,0,1.19.15q1.7,0,1.7-1.09a.89.89,0,0,0-.19-.58,1.66,1.66,0,0,0-.55-.42,5.31,5.31,0,0,0-.86-.33l-1.13-.33a9.71,9.71,0,0,1-1.32-.45,3.47,3.47,0,0,1-.93-.58,2.18,2.18,0,0,1-.56-.77,2.69,2.69,0,0,1-.19-1,3.28,3.28,0,0,1,.3-1.43,2.9,2.9,0,0,1,.83-1,3.76,3.76,0,0,1,1.23-.63,5.1,5.1,0,0,1,1.5-.22,5.82,5.82,0,0,1,2.05.35,7.62,7.62,0,0,1,1.64.83Z" fill="#fff"/>
        <path d="M272.4,35.69h-2V31.32a2.32,2.32,0,0,0-.32-1.37,1,1,0,0,0-.88-.43,1.67,1.67,0,0,0-1.12.45,2.5,2.5,0,0,0-.74,1.18v4.54h-2V31.32A2.32,2.32,0,0,0,265,30a1,1,0,0,0-.88-.43A1.7,1.7,0,0,0,263,30a2.44,2.44,0,0,0-.75,1.18v4.55h-2V27.9h1.8v1.44a3,3,0,0,1,1.18-1.17,3.54,3.54,0,0,1,1.72-.41,2.21,2.21,0,0,1,1.52.48,2.13,2.13,0,0,1,.68,1.17,3.37,3.37,0,0,1,1.2-1.23,3.25,3.25,0,0,1,1.67-.42,2.31,2.31,0,0,1,1.17.27,1.93,1.93,0,0,1,.71.7,2.93,2.93,0,0,1,.35,1,6.47,6.47,0,0,1,.1,1.12Z" fill="#fff"/>
      </g>
      <g>
        <path d="M277.15,35.81a2.94,2.94,0,0,1-1.06-.19,2.52,2.52,0,0,1-.85-.52,2.43,2.43,0,0,1-.56-.78,2.38,2.38,0,0,1-.2-1,2.17,2.17,0,0,1,.25-1,2.34,2.34,0,0,1,.68-.8,3.42,3.42,0,0,1,1-.51,4.59,4.59,0,0,1,1.34-.19,5.78,5.78,0,0,1,1,.09,4.17,4.17,0,0,1,.89.25v-.45a1.56,1.56,0,0,0-.44-1.19,1.83,1.83,0,0,0-1.3-.42,3.45,3.45,0,0,0-1.22.22,5.63,5.63,0,0,0-1.22.65l-.61-1.26a5.75,5.75,0,0,1,3.24-1,3.8,3.8,0,0,1,2.61.83,3,3,0,0,1,.93,2.39v2.42a.7.7,0,0,0,.11.45.49.49,0,0,0,.36.15v1.7a4.46,4.46,0,0,1-.88.1,1.33,1.33,0,0,1-.87-.25,1.09,1.09,0,0,1-.38-.67l0-.43a3.46,3.46,0,0,1-1.26,1A3.63,3.63,0,0,1,277.15,35.81Zm.57-1.46a2.59,2.59,0,0,0,1-.18,1.74,1.74,0,0,0,.71-.48.72.72,0,0,0,.33-.57v-.89a4.87,4.87,0,0,0-.77-.22,4.19,4.19,0,0,0-.8-.08,2.12,2.12,0,0,0-1.26.35,1,1,0,0,0-.49.88,1.06,1.06,0,0,0,.39.84A1.4,1.4,0,0,0,277.72,34.35Z" fill="#fff"/>
        <path d="M288.95,29.59a4,4,0,0,0-1.62.35,2.05,2.05,0,0,0-1,1v4.72h-2v-7.8h1.83v1.67a3.59,3.59,0,0,1,.49-.72,3.81,3.81,0,0,1,.61-.56,2.81,2.81,0,0,1,.66-.36,1.81,1.81,0,0,1,.65-.13h.4Z" fill="#fff"/>
        <path d="M295.48,35.26a8.68,8.68,0,0,1-1,.36,4.14,4.14,0,0,1-1.22.18,2.85,2.85,0,0,1-.78-.1,1.72,1.72,0,0,1-.64-.34,1.63,1.63,0,0,1-.44-.59,2.16,2.16,0,0,1-.16-.89V29.4h-1V27.87h1V25.34h2v2.53h1.64V29.4h-1.64v3.81a.71.71,0,0,0,.22.59A.82.82,0,0,0,294,34a1.82,1.82,0,0,0,.61-.1l.48-.18Z" fill="#fff"/>
        <path d="M300.69,35.81a4.33,4.33,0,0,1-1.7-.32,3.83,3.83,0,0,1-2.12-2.15,4.12,4.12,0,0,1-.29-1.53,4.36,4.36,0,0,1,.28-1.57,3.84,3.84,0,0,1,.82-1.29,3.9,3.9,0,0,1,1.3-.88,4.34,4.34,0,0,1,1.72-.33,4.23,4.23,0,0,1,1.7.33,3.92,3.92,0,0,1,1.28.88,3.73,3.73,0,0,1,.8,1.28,4.27,4.27,0,0,1,.27,1.52c0,.13,0,.25,0,.37a1.46,1.46,0,0,1,0,.3h-6a2.31,2.31,0,0,0,.22.82,2,2,0,0,0,1.1,1,2.1,2.1,0,0,0,.74.13,2.29,2.29,0,0,0,1.12-.29,1.53,1.53,0,0,0,.72-.77l1.71.48a3.48,3.48,0,0,1-1.38,1.47A4.27,4.27,0,0,1,300.69,35.81Zm2-4.7a2.07,2.07,0,0,0-.65-1.41,2,2,0,0,0-2.76,0,2,2,0,0,0-.44.61,2.14,2.14,0,0,0-.2.79Z" fill="#fff"/>
        <path d="M311.37,29.59a4,4,0,0,0-1.62.35,2.05,2.05,0,0,0-1,1v4.72h-2v-7.8h1.83v1.67a3.59,3.59,0,0,1,.49-.72,3.81,3.81,0,0,1,.61-.56,2.81,2.81,0,0,1,.66-.36,1.81,1.81,0,0,1,.65-.13h.4Z" fill="#fff"/>
      </g>
    </g>
    <g>
      <path d="M253.88,37.58h1.81l4,10.56H257.6l-1-2.63h-3.69l-1,2.63h-2.11Zm2.37,6.49-1.46-4.15-1.52,4.15Z" fill="#fff"/>
      <path d="M265.85,48.29a3.14,3.14,0,0,1-1.59-.4,2.93,2.93,0,0,1-1.1-1.1v1.35h-1.74V37.28h2v4.43a3,3,0,0,1,1.09-1.11,3.09,3.09,0,0,1,1.58-.39,2.94,2.94,0,0,1,1.38.33,3.47,3.47,0,0,1,1.08.88,4,4,0,0,1,.7,1.29,5,5,0,0,1,.25,1.56,4.45,4.45,0,0,1-.27,1.58,4,4,0,0,1-.77,1.27,3.62,3.62,0,0,1-1.16.86A3.38,3.38,0,0,1,265.85,48.29Zm-.55-1.7a2.05,2.05,0,0,0,.88-.19,2.09,2.09,0,0,0,.68-.5,2.25,2.25,0,0,0,.44-.73,2.53,2.53,0,0,0,.16-.89,2.76,2.76,0,0,0-.15-.91,2.37,2.37,0,0,0-.42-.76,2.13,2.13,0,0,0-.65-.52,1.75,1.75,0,0,0-.82-.19,1.82,1.82,0,0,0-1.2.44,2.92,2.92,0,0,0-.81,1.08v1.86a1.71,1.71,0,0,0,.31.54,2.24,2.24,0,0,0,.45.41,2.17,2.17,0,0,0,.55.27A1.84,1.84,0,0,0,265.3,46.59Z" fill="#fff"/>
      <path d="M275.2,48.29a4.28,4.28,0,0,1-1.71-.33,3.82,3.82,0,0,1-2.1-2.17,4.32,4.32,0,0,1,0-3.08,3.89,3.89,0,0,1,.81-1.29,3.84,3.84,0,0,1,1.29-.88,4.28,4.28,0,0,1,1.71-.33,4.23,4.23,0,0,1,1.7.33,3.86,3.86,0,0,1,1.28.88,3.91,3.91,0,0,1,.81,1.29,4.34,4.34,0,0,1,0,3.08,4,4,0,0,1-.8,1.29,3.77,3.77,0,0,1-1.28.89A4.28,4.28,0,0,1,275.2,48.29Zm-2-4a2.71,2.71,0,0,0,.16.94,2.31,2.31,0,0,0,.43.74,1.93,1.93,0,0,0,.65.48,2,2,0,0,0,1.61,0,1.93,1.93,0,0,0,.65-.48,2.28,2.28,0,0,0,.43-.74,2.78,2.78,0,0,0,.16-1,2.74,2.74,0,0,0-.16-.94,2.29,2.29,0,0,0-.43-.74,1.92,1.92,0,0,0-.65-.48,1.9,1.9,0,0,0-.8-.17,1.82,1.82,0,0,0-.8.18,2,2,0,0,0-.65.49,2.3,2.3,0,0,0-.43.74A2.73,2.73,0,0,0,273.16,44.26Z" fill="#fff"/>
      <path d="M283.74,48.29a2.21,2.21,0,0,1-1.83-.77,3.59,3.59,0,0,1-.62-2.29V40.35h2v4.45q0,1.8,1.29,1.8a2,2,0,0,0,1.12-.35,2.52,2.52,0,0,0,.88-1.06V40.35h2v5.5a.7.7,0,0,0,.11.45.49.49,0,0,0,.36.15v1.7a4.11,4.11,0,0,1-.5.07l-.36,0a1.44,1.44,0,0,1-.87-.25,1,1,0,0,1-.39-.68l0-.62a3.31,3.31,0,0,1-1.34,1.2A4,4,0,0,1,283.74,48.29Z" fill="#fff"/>
      <path d="M296,47.74a8.68,8.68,0,0,1-1,.36,4.13,4.13,0,0,1-1.22.18,2.85,2.85,0,0,1-.78-.1,1.72,1.72,0,0,1-.64-.34,1.63,1.63,0,0,1-.44-.59,2.16,2.16,0,0,1-.16-.89V41.88h-1V40.35h1V37.82h2v2.53h1.64v1.53h-1.64v3.81a.71.71,0,0,0,.22.59.82.82,0,0,0,.53.17,1.82,1.82,0,0,0,.61-.1l.48-.18Z" fill="#fff"/>
    </g>
    <g>
      <path d="M217.5,35.61a4.27,4.27,0,1,0-4.27-4.27,4.27,4.27,0,0,0,4.27,4.27" fill="#fff"/>
      <path d="M236.94,39.7a8.31,8.31,0,0,1-2.71-.46l-7.05,7.05-7-7a8.33,8.33,0,0,1-9.64-3.37,27.16,27.16,0,0,0-.17,3c0,12,7.56,21.67,16.88,21.67s16.88-9.7,16.88-21.67a28,28,0,0,0-.17-3,8.35,8.35,0,0,1-7,3.8" fill="#fff"/>
      <path d="M236.94,35.61a4.27,4.27,0,1,0-4.26-4.27,4.27,4.27,0,0,0,4.26,4.27" fill="#fff"/>
      <path d="M225.85,31.35a8.32,8.32,0,0,1-2.2,5.64l3.53,3.53,3.58-3.58A8.34,8.34,0,0,1,241,24.09V12.46l-5.42,7.67a13.7,13.7,0,0,0-16.47-.25l-5.25-7.42V23.81a8.35,8.35,0,0,1,11.94,7.54" fill="#fff"/>
    </g>
    <g>
      <path d="M258.46,60.56v-7l-2.72,5.21h-1.11l-2.72-5.21v7h-2.05V50h2.2l3.12,6,3.15-6h2.19V60.56Z" fill="#fff"/>
      <path d="M266.76,60.71a4.28,4.28,0,0,1-1.71-.33,3.82,3.82,0,0,1-2.1-2.17,4.32,4.32,0,0,1,0-3.08,3.89,3.89,0,0,1,.81-1.29,3.84,3.84,0,0,1,1.29-.88,4.28,4.28,0,0,1,1.71-.33,4.23,4.23,0,0,1,1.7.33,3.86,3.86,0,0,1,1.28.88,3.91,3.91,0,0,1,.81,1.29,4.34,4.34,0,0,1,0,3.08,4,4,0,0,1-.8,1.29,3.77,3.77,0,0,1-1.28.89A4.28,4.28,0,0,1,266.76,60.71Zm-2-4a2.71,2.71,0,0,0,.16.94,2.31,2.31,0,0,0,.43.74,1.93,1.93,0,0,0,.65.48,2,2,0,0,0,1.61,0,1.93,1.93,0,0,0,.65-.48,2.28,2.28,0,0,0,.43-.74,2.78,2.78,0,0,0,.16-1,2.74,2.74,0,0,0-.16-.94,2.29,2.29,0,0,0-.43-.74,1.92,1.92,0,0,0-.65-.48,1.9,1.9,0,0,0-.8-.17,1.82,1.82,0,0,0-.8.18,2,2,0,0,0-.65.49,2.3,2.3,0,0,0-.43.74A2.73,2.73,0,0,0,264.73,56.68Z" fill="#fff"/>
      <path d="M280.17,60.56h-2V56.19a2.28,2.28,0,0,0-.33-1.37,1.07,1.07,0,0,0-.91-.43,1.69,1.69,0,0,0-.61.12,2.25,2.25,0,0,0-.59.33,2.72,2.72,0,0,0-.5.51,2,2,0,0,0-.33.65v4.55h-2v-7.8h1.8v1.44A3,3,0,0,1,276,53a4,4,0,0,1,1.84-.42,2.34,2.34,0,0,1,1.19.27,1.93,1.93,0,0,1,.71.7,2.93,2.93,0,0,1,.35,1,6.47,6.47,0,0,1,.1,1.12Z" fill="#fff"/>
      <path d="M286.27,60.71a4.33,4.33,0,0,1-1.7-.32,3.89,3.89,0,0,1-1.29-.87,3.84,3.84,0,0,1-.83-1.28,4.1,4.1,0,0,1-.29-1.53,4.34,4.34,0,0,1,.28-1.57,3.82,3.82,0,0,1,.82-1.29,3.91,3.91,0,0,1,1.3-.88,4.33,4.33,0,0,1,1.72-.33A4.23,4.23,0,0,1,288,53a3.93,3.93,0,0,1,1.28.88,3.74,3.74,0,0,1,.8,1.28,4.24,4.24,0,0,1,.27,1.52c0,.13,0,.25,0,.37a1.56,1.56,0,0,1,0,.3h-6a2.34,2.34,0,0,0,.22.82,2.05,2.05,0,0,0,.46.61,2,2,0,0,0,.64.39,2.09,2.09,0,0,0,.74.13,2.3,2.3,0,0,0,1.12-.29,1.54,1.54,0,0,0,.72-.77l1.71.48a3.48,3.48,0,0,1-1.38,1.47A4.27,4.27,0,0,1,286.27,60.71Zm2-4.7a2.08,2.08,0,0,0-.65-1.41,2,2,0,0,0-2.76,0,2,2,0,0,0-.44.61,2.16,2.16,0,0,0-.2.79Z" fill="#fff"/>
      <path d="M292.26,62.08a3.94,3.94,0,0,0,.49.11l.4,0a.85.85,0,0,0,.36-.07.77.77,0,0,0,.3-.26,2.64,2.64,0,0,0,.27-.51c.09-.22.18-.49.28-.82l-3.08-7.8h2.05l2.11,6.07,1.88-6.07h1.87l-3.27,9.34a2.8,2.8,0,0,1-1,1.34,2.72,2.72,0,0,1-1.7.52,3.14,3.14,0,0,1-.48,0,3,3,0,0,1-.51-.13Z" fill="#fff"/>
      <g>
        <path d="M299.82,60.61V59.23h1.05v1.38Z" fill="#fff"/>
        <path d="M302.17,58.1a2.73,2.73,0,0,1,.18-1,2.41,2.41,0,0,1,.53-.82,2.57,2.57,0,0,1,.83-.57,2.76,2.76,0,0,1,1.1-.21,2.64,2.64,0,0,1,1.4.36,2.27,2.27,0,0,1,.87.93l-1.26.38a1.13,1.13,0,0,0-.43-.43,1.21,1.21,0,0,0-.59-.15,1.22,1.22,0,0,0-.52.11,1.27,1.27,0,0,0-.42.31,1.43,1.43,0,0,0-.28.47,1.79,1.79,0,0,0-.1.61,1.72,1.72,0,0,0,.11.61,1.55,1.55,0,0,0,.28.48,1.25,1.25,0,0,0,.42.31,1.2,1.2,0,0,0,.51.11,1.24,1.24,0,0,0,.64-.17,1,1,0,0,0,.41-.42l1.26.38a2.11,2.11,0,0,1-.85.94,2.68,2.68,0,0,1-1.43.36,2.76,2.76,0,0,1-1.1-.21,2.5,2.5,0,0,1-1.37-1.41A2.68,2.68,0,0,1,302.17,58.1Z" fill="#fff"/>
        <path d="M309.74,60.71a1.9,1.9,0,0,1-.68-.12,1.62,1.62,0,0,1-.55-.34,1.56,1.56,0,0,1-.36-.5,1.52,1.52,0,0,1-.13-.63,1.4,1.4,0,0,1,.16-.66,1.5,1.5,0,0,1,.44-.51,2.21,2.21,0,0,1,.68-.33,3,3,0,0,1,.86-.12,3.73,3.73,0,0,1,.66.06,2.67,2.67,0,0,1,.57.16v-.29a1,1,0,0,0-.28-.77,1.18,1.18,0,0,0-.84-.27,2.22,2.22,0,0,0-.79.14,3.63,3.63,0,0,0-.79.42l-.39-.81a3.71,3.71,0,0,1,2.09-.64,2.45,2.45,0,0,1,1.68.53,2,2,0,0,1,.6,1.54v1.56a.45.45,0,0,0,.07.29.31.31,0,0,0,.23.1v1.09a2.88,2.88,0,0,1-.57.07.86.86,0,0,1-.56-.16.7.7,0,0,1-.24-.43l0-.28a2.23,2.23,0,0,1-.81.67A2.34,2.34,0,0,1,309.74,60.71Zm.36-.94a1.66,1.66,0,0,0,.62-.12,1.12,1.12,0,0,0,.46-.31.46.46,0,0,0,.21-.36v-.58a3.09,3.09,0,0,0-.5-.14,2.68,2.68,0,0,0-.52-.05,1.37,1.37,0,0,0-.82.23.68.68,0,0,0-.32.57.69.69,0,0,0,.25.54A.91.91,0,0,0,310.11,59.77Z" fill="#fff"/>
      </g>
    </g>
  </g>
  <g>
    <path d="M94.17,19a3,3,0,0,1,3,3.23,3,3,0,1,1-6,0A3,3,0,0,1,94.17,19Zm0,5.67c1.44,0,2.06-1.2,2.06-2.44s-.68-2.45-2.06-2.44-2.06,1.17-2.06,2.44S92.72,24.65,94.17,24.65Z" fill="#fff"/>
    <path d="M103.55,19.08h1.22l2.76,5h0v-5h.9v6.25h-1.15l-2.83-5.14h0v5.14h-.9Z" fill="#fff"/>
    <path d="M116.39,19.87h-1.94v-.79h4.78v.79h-1.94v5.46h-.9Z" fill="#fff"/>
    <path d="M126.73,19.08h.94l2.64,6.25h-1l-.64-1.57h-3.06L125,25.33h-.94Zm.44.84L125.92,23h2.49Z" fill="#fff"/>
    <path d="M136.28,19.08h1.53c1.23,0,2.42.2,2.42,1.69a1.45,1.45,0,0,1-1.29,1.42v0c.28.11.41.24.61.63l1.18,2.49h-1l-1-2.17c-.28-.61-.57-.61-1-.61h-.54v2.77h-.9Zm.9,2.69h.76c.85,0,1.35-.38,1.35-1s-.43-.92-1.25-.92h-.86Z" fill="#fff"/>
    <path d="M146.92,19.08h.9v6.25h-.9Z" fill="#fff"/>
    <path d="M157.22,19a3,3,0,0,1,3,3.23,3,3,0,1,1-6,0A3,3,0,0,1,157.22,19Zm0,5.67c1.44,0,2.06-1.2,2.06-2.44s-.68-2.45-2.06-2.44-2.06,1.17-2.06,2.44S155.78,24.65,157.22,24.65Z" fill="#fff"/>
    <path d="M94.32,34.74a2.73,2.73,0,0,0-1.17-.26c-.5,0-1.09.18-1.09.83,0,1.2,2.69.92,2.69,3,0,1.33-1,1.86-2.28,1.86a4.19,4.19,0,0,1-1.28-.26l.09-.83a3.78,3.78,0,0,0,1.3.3,1.12,1.12,0,0,0,1.23-1c0-1.4-2.68-1-2.68-3,0-1.11.88-1.7,2-1.7a4.14,4.14,0,0,1,1.33.22Z" fill="#fff"/>
    <path d="M98.62,33.8h3.5v.79H99.52v1.82h2.37v.79H99.52v2.06h2.61V40h-3.5Z" fill="#fff"/>
    <path d="M110.48,34.83a2.5,2.5,0,0,0-1.29-.35,2.44,2.44,0,0,0,0,4.89,3.1,3.1,0,0,0,1.36-.3l.05.87a3.91,3.91,0,0,1-1.42.22,3.08,3.08,0,0,1-3.29-3.26,3.11,3.11,0,0,1,3.3-3.2,3.44,3.44,0,0,1,1.41.27Z" fill="#fff"/>
    <path d="M119.12,37.46c0,1.75-.89,2.7-2.43,2.7s-2.42-.94-2.42-2.7V33.8h.9v3.54c0,1.2.38,2,1.53,2s1.53-.82,1.53-2V33.8h.9Z" fill="#fff"/>
    <path d="M123.29,33.8h1.53c1.23,0,2.42.2,2.42,1.69A1.45,1.45,0,0,1,126,36.91v0c.28.11.41.24.61.63L127.74,40h-1l-1-2.17c-.28-.61-.57-.61-1-.61h-.54V40h-.9Zm.9,2.69h.76c.85,0,1.35-.38,1.35-1s-.43-.92-1.25-.92h-.86Z" fill="#fff"/>
    <path d="M131.43,33.8h.9V40h-.9Z" fill="#fff"/>
    <path d="M137.78,34.59h-1.94V33.8h4.78v.79h-1.94V40h-.9Z" fill="#fff"/>
    <path d="M144.13,33.8h.9V40h-.9Z" fill="#fff"/>
    <path d="M149.29,33.8h3.5v.79h-2.61v1.82h2.37v.79h-2.37v2.06h2.61V40h-3.5Z" fill="#fff"/>
    <path d="M159.68,34.74a2.73,2.73,0,0,0-1.17-.26c-.5,0-1.09.18-1.09.83,0,1.2,2.69.92,2.69,3,0,1.33-1,1.86-2.28,1.86a4.18,4.18,0,0,1-1.28-.26l.09-.83a3.77,3.77,0,0,0,1.3.3,1.12,1.12,0,0,0,1.23-1c0-1.4-2.69-1-2.69-3,0-1.11.88-1.7,2-1.7a4.15,4.15,0,0,1,1.33.22Z" fill="#fff"/>
    <path d="M95.79,49.55a2.51,2.51,0,0,0-1.29-.35,2.44,2.44,0,0,0,0,4.89,3.09,3.09,0,0,0,1.36-.3l.05.87a3.9,3.9,0,0,1-1.42.22,3.08,3.08,0,0,1-3.29-3.26,3.11,3.11,0,0,1,3.3-3.2,3.44,3.44,0,0,1,1.41.27Z" fill="#fff"/>
    <path d="M101.09,48.41a3,3,0,0,1,3,3.23,3,3,0,1,1-6,0A3,3,0,0,1,101.09,48.41Zm0,5.67c1.44,0,2.06-1.2,2.06-2.44s-.68-2.45-2.06-2.44S99,50.37,99,51.64,99.65,54.09,101.09,54.09Z" fill="#fff"/>
    <path d="M106.83,48.52h1.48l2,5.19,1.92-5.19h1.48v6.25h-.9V49.36h0l-2.07,5.41h-.88l-2.07-5.41h0v5.41h-.9Z" fill="#fff"/>
    <path d="M116.73,48.52h1.48l2,5.19,1.92-5.19h1.48v6.25h-.9V49.36h0l-2.07,5.41h-.88l-2.07-5.41h0v5.41h-.9Z" fill="#fff"/>
    <path d="M126.63,48.52h.9v6.25h-.9Z" fill="#fff"/>
    <path d="M133.41,49.46a2.73,2.73,0,0,0-1.17-.26c-.5,0-1.09.18-1.09.83,0,1.2,2.69.92,2.69,3,0,1.33-1,1.86-2.28,1.86a4.19,4.19,0,0,1-1.28-.26l.09-.83a3.78,3.78,0,0,0,1.3.3,1.12,1.12,0,0,0,1.23-1c0-1.4-2.68-1-2.68-3,0-1.11.88-1.7,2-1.7a4.14,4.14,0,0,1,1.33.22Z" fill="#fff"/>
    <path d="M139.35,49.46a2.72,2.72,0,0,0-1.17-.26c-.5,0-1.09.18-1.09.83,0,1.2,2.69.92,2.69,3,0,1.33-1,1.86-2.28,1.86a4.17,4.17,0,0,1-1.28-.26l.09-.83a3.77,3.77,0,0,0,1.3.3,1.12,1.12,0,0,0,1.23-1c0-1.4-2.68-1-2.68-3,0-1.11.88-1.7,2-1.7a4.14,4.14,0,0,1,1.33.22Z" fill="#fff"/>
    <path d="M142.44,48.52h.9v6.25h-.9Z" fill="#fff"/>
    <path d="M149.08,48.41a3,3,0,0,1,3,3.23,3,3,0,1,1-6,0A3,3,0,0,1,149.08,48.41Zm0,5.67c1.44,0,2.06-1.2,2.06-2.44s-.68-2.45-2.06-2.44S147,50.37,147,51.64,147.64,54.09,149.08,54.09Z" fill="#fff"/>
    <path d="M154.8,48.52H156l2.76,5h0v-5h.9v6.25h-1.15l-2.83-5.14h0v5.14h-.9Z" fill="#fff"/>
  </g>
  <g>
    <path d="M24.27,28.79c-3.88,0-5.79,3.3-5.79,6.87s1.74,6.87,5.79,6.87,5.79-3.37,5.79-6.87S28.15,28.76,24.27,28.79Z" fill="#fff"/>
    <path d="M0,.78V76.35H75.57V.78Zm24.27,44c-5.36,0-8.46-3.75-8.46-9.09s3.12-9.09,8.46-9.09,8.46,3.88,8.46,9.09S29.64,44.75,24.27,44.75Zm14.59,0a11.72,11.72,0,0,1-3.6-.73l.25-2.34a10.65,10.65,0,0,0,3.65.86c1.43,0,3.45-.8,3.45-2.87,0-3.93-7.55-2.84-7.55-8.31,0-3.12,2.47-4.78,5.64-4.78a11.69,11.69,0,0,1,3.75.63l-.35,2.32a7.75,7.75,0,0,0-3.3-.73c-1.41,0-3.07.5-3.07,2.34,0,3.37,7.55,2.59,7.55,8.38C45.28,43.26,42.39,44.75,38.86,44.75Zm18,0c-5.57,0-9.26-3.58-9.26-9.16,0-5.41,3.93-9,9.29-9a9.68,9.68,0,0,1,4,.75l-.2,2.44a7.07,7.07,0,0,0-3.63-1,6.52,6.52,0,0,0-6.75,6.87,6.55,6.55,0,0,0,6.62,6.87,8.66,8.66,0,0,0,3.83-.86l.15,2.44A11,11,0,0,1,56.87,44.75Z" fill="#fff"/>
  </g>
</svg>
