<svg viewBox="0 0 50 50" style="display: none;">
  <symbol viewBox="0 0 54 25.31" id="icon-chev-down">
    <title>chev-down</title>
    <path d="M63.19,25.62a2.4,2.4,0,0,0-3.39-.31L36.75,44.53,13.69,25.31A2.41,2.41,0,0,0,10.61,29l24.6,20.5a2.4,2.4,0,0,0,3.08,0L62.89,29A2.4,2.4,0,0,0,63.19,25.62Z" transform="translate(-9.75 -24.75)" /> </symbol>
  <symbol viewBox="0 0 28.35 41.85" id="icon-chev-left-thick">
    <title>chev-left</title>
    <polygon points="28.35 34.43 14.85 20.93 28.35 7.43 20.93 0 0 20.93 20.93 41.85 28.35 34.43" /> </symbol>
  <symbol viewBox="0 0 25.31 54" id="icon-chev-left">
    <title>chev-left</title>
    <path d="M48.54,63.85a2.4,2.4,0,0,0,.31-3.39L29.63,37.41,48.85,14.35a2.41,2.41,0,0,0-3.7-3.08l-20.5,24.6a2.4,2.4,0,0,0,0,3.08l20.5,24.6A2.4,2.4,0,0,0,48.54,63.85Z" transform="translate(-24.09 -10.41)" /> </symbol>
  <symbol viewBox="0 0 28.35 41.85" id="icon-chev-right-thick">
    <title>chev-right</title>
    <polygon points="0 7.43 13.5 20.93 0 34.43 7.43 41.85 28.35 20.93 7.43 0 0 7.43" /> </symbol>
  <symbol viewBox="0 0 25.31 54" id="icon-chev-right">
    <title>chev-right</title>
    <path d="M25,11a2.4,2.4,0,0,0-.31,3.39L43.87,37.41,24.65,60.46a2.41,2.41,0,0,0,3.7,3.08l20.5-24.6a2.4,2.4,0,0,0,0-3.08l-20.5-24.6A2.4,2.4,0,0,0,25,11Z" transform="translate(-24.09 -10.41)" /> </symbol>
  <symbol viewBox="0 0 54 25.31" id="icon-chev-up">
    <title>chev-up</title>
    <path d="M10.31,49.2a2.4,2.4,0,0,0,3.39.31L36.75,30.29,59.8,49.51a2.41,2.41,0,0,0,3.08-3.7l-24.6-20.5a2.4,2.4,0,0,0-3.08,0l-24.6,20.5A2.4,2.4,0,0,0,10.31,49.2Z" transform="translate(-9.75 -24.75)" /> </symbol>
  <symbol viewBox="0 0 75 75" id="icon-close">
    <title>icon-close</title>
    <path d="M25.78,20.88,37.5,32.59,49.22,20.88l4.91,4.91L42.41,37.5,54.13,49.22l-4.91,4.91L37.5,42.41,25.78,54.13l-4.91-4.91L32.59,37.5,20.88,25.78ZM37.5,0A37.5,37.5,0,1,0,75,37.5,37.5,37.5,0,0,0,37.5,0Z" /> </symbol>
  <symbol viewBox="0 0 57.03 57.03" id="icon-contrast">
    <title>contrast</title>
    <path d="M28.52,0A28.52,28.52,0,1,0,57,28.52,28.55,28.55,0,0,0,28.52,0Zm-.2,53.9a25.38,25.38,0,0,1,0-50.76" /> </symbol>
  <symbol viewBox="0 0 99.93 99.93" id="icon-external-link">
    <title>external-link</title>
    <path d="M80.87,51.24a6.36,6.36,0,0,0-6.36,6.35v27a2.65,2.65,0,0,1-2.65,2.65H15.36a2.66,2.66,0,0,1-2.65-2.65V28.07a2.66,2.66,0,0,1,2.65-2.65h27a6.35,6.35,0,1,0,0-12.71h-27A15.38,15.38,0,0,0,0,28.07v56.5A15.38,15.38,0,0,0,15.36,99.93h56.5A15.38,15.38,0,0,0,87.22,84.57v-27A6.35,6.35,0,0,0,80.87,51.24Z"
    />
    <path d="M84.57,0H58.23a6.36,6.36,0,0,0,0,12.71h20L36.06,54.88a6.35,6.35,0,0,0,9,9L87.22,21.7v20a6.36,6.36,0,0,0,12.71,0V15.36A15.38,15.38,0,0,0,84.57,0Z" /> </symbol>
  <symbol viewBox="0 0 266.89 266.89" id="icon-facebook">
    <title>icon-facebook</title>
    <path id="facebook-White-2" data-name="White" d="M252.16,0H14.73A14.73,14.73,0,0,0,0,14.73V252.16a14.73,14.73,0,0,0,14.73,14.73H142.56V163.54H107.78V123.26h34.78V93.55c0-34.47,21.05-53.24,51.81-53.24a285.37,285.37,0,0,1,31.08,1.59v36H204.12c-16.72,0-20,7.95-20,19.61v25.72H224l-5.19,40.28H184.15V266.89h68a14.73,14.73,0,0,0,14.73-14.73V14.73A14.73,14.73,0,0,0,252.16,0Z"
    /> </symbol>
  <symbol viewBox="0 0 75 61.36" id="icon-mail">
    <title>mail</title>
    <path d="M51.92,40,38.7,53.18a1.71,1.71,0,0,1-2.41,0L23.38,40.27.29,63.36a6.8,6.8,0,0,0,6.52,4.81H68.18a6.8,6.8,0,0,0,6.64-5.3L51.91,40M75,16.9,54.33,37.56,75,58.23V16.89m-75,0V58.84l21-21L0,16.9M6.82,6.82A6.8,6.8,0,0,0,.14,12.23L37.5,49.58,74.85,12.23a6.81,6.81,0,0,0-6.67-5.41H6.81"
    transform="translate(0 -6.82)" /> </symbol>
  <symbol viewBox="0 0 60 60" id="icon-menu-close">
    <title>menu-close</title>
    <path d="M67.08,61h0a1.44,1.44,0,0,0,0-2l-51-51a1.44,1.44,0,0,0-2,0L7.92,14a1.44,1.44,0,0,0,0,2l51,51a1.44,1.44,0,0,0,2,0Z" transform="translate(-7.5 -7.5)" />
    <path d="M67.08,14h0a1.44,1.44,0,0,1,0,2l-51,51a1.44,1.44,0,0,1-2,0L7.92,61a1.44,1.44,0,0,1,0-2l51-51a1.44,1.44,0,0,1,2,0Z" transform="translate(-7.5 -7.5)" /> </symbol>
  <symbol viewBox="0 0 75 57.69" id="icon-menu">
    <title>menu</title>
    <path d="M75,56.25h0a1.44,1.44,0,0,0-1.44-1.44H1.44A1.44,1.44,0,0,0,0,56.25V64.9a1.44,1.44,0,0,0,1.44,1.44H73.56A1.44,1.44,0,0,0,75,64.9Zm0-23.08h0a1.44,1.44,0,0,0-1.44-1.44H1.44A1.44,1.44,0,0,0,0,33.17v8.65a1.44,1.44,0,0,0,1.44,1.44H73.56A1.44,1.44,0,0,0,75,41.82Zm0-14.42h0a1.44,1.44,0,0,1-1.44,1.44H1.44A1.44,1.44,0,0,1,0,18.75V10.1A1.44,1.44,0,0,1,1.44,8.66H73.56A1.44,1.44,0,0,1,75,10.1Z"
    transform="translate(0 -8.66)" /> </symbol>
  <symbol viewBox="0 0 68.79 68.79" id="icon-plus">
    <title>plus</title>
    <path d="M3.06,26.76H25.87V4H49.05v22.8h22.8V50H49.05v22.8H25.87V50H3.06Z" transform="translate(-3.06 -3.96)" /> </symbol>
  <symbol viewBox="0 0 67.5 57.7" id="icon-print">
    <title>print</title>
    <path d="M62.06,37.92a3,3,0,1,1,3-3A3,3,0,0,1,62.06,37.92ZM54.42,63.39H20.58V45.6H54.41V63.39ZM70.88,29.75a1,1,0,0,0-.07-.44l-2.08-5.57A2,2,0,0,0,67,22.54H54.44v4.51H20.56V22.54H8a2,2,0,0,0-1.7,1.18L4.2,29.3a1,1,0,0,0-.07.44,1.24,1.24,0,0,0-.37.89V52.29A1.26,1.26,0,0,0,5,53.56H17.62V66.35H57.38V53.56H70a1.26,1.26,0,0,0,1.26-1.26V30.64A1.25,1.25,0,0,0,70.88,29.75Z"
    transform="translate(-3.75 -8.65)" />
    <rect x="19.78" width="27.94" height="15.44" /> </symbol>
  <symbol viewBox="0 0 67.54 67.62" id="icon-search">
    <title>search</title>
    <path d="M6.28,62.93l.38-.08a1.2,1.2,0,0,0,1.05-1v-.23a.66.66,0,0,1,.23-.45l.23-.15L21,48.23c1.43-1.43,1.65-.37,3.23-1.95l4.05-4a25.1,25.1,0,0,1-3.9-7.73,24.92,24.92,0,0,1-.82-4.12,22.25,22.25,0,0,1-.15-3.15c0-.37.08-.68.08-1.05.08-.68.15-1.43.23-2.1a17.66,17.66,0,0,1,.38-2.1,19.64,19.64,0,0,1,1.35-4.05c.15-.3.3-.68.45-1,.3-.6.68-1.27,1.05-1.87.23-.3.38-.6.6-.9a25.07,25.07,0,0,1,2.85-3.45A24.1,24.1,0,0,1,58.5,6.45a24.85,24.85,0,0,1,3,1.88,27.73,27.73,0,0,1,2.77,2.4l.68.67,1.2,1.43a6.49,6.49,0,0,0,.52.75c.23.3.38.6.6.9a19.55,19.55,0,0,1,1.27,2.1,24.25,24.25,0,0,1-4.27,28.2,24.85,24.85,0,0,1-3.45,2.85c-.3.23-.6.38-.9.6a15.24,15.24,0,0,1-1.87,1.05c-.3.15-.68.3-1,.45A28.35,28.35,0,0,1,53,51.07c-.9.15-1.73.38-2.62.45a11.16,11.16,0,0,1-1.57.15,5,5,0,0,1-1.05.07,19.94,19.94,0,0,1-2.1-.07,25.37,25.37,0,0,1-5.18-1,23.41,23.41,0,0,1-7.73-3.9l-4,4.05c-1.58,1.5-.52,1.73-2,3.23L14,66.75,13.8,67l-.15.23a.62.62,0,0,1-.45.23H13a1.19,1.19,0,0,0-1,1.05v.44a3.7,3.7,0,0,1-1.05,2.25.59.59,0,0,1-.82,0L7,68.1V68H7L3.9,64.95a.59.59,0,0,1,0-.82A4.8,4.8,0,0,1,6.28,62.93Zm23-31.51a20.16,20.16,0,0,0,1.8,5c.23.45.45.83.68,1.2a9.77,9.77,0,0,0,.75,1.13,15.85,15.85,0,0,0,1.8,2.1,15.57,15.57,0,0,0,2.1,1.8,23.77,23.77,0,0,0,2.32,1.43,15.48,15.48,0,0,0,5,1.8,27.37,27.37,0,0,0,3.52.3,15.88,15.88,0,0,0,1.88-.07,23.56,23.56,0,0,0,3.3-.68,19,19,0,0,0,7.8-4.65A18.21,18.21,0,0,0,64.95,33a17.81,17.81,0,0,0,.75-5.25,18,18,0,0,0-.3-3.52,20.16,20.16,0,0,0-1.8-5,19.91,19.91,0,0,0-3.23-4.35l-.07-.08-.07-.07a16.42,16.42,0,0,0-4.35-3.23,17.41,17.41,0,0,0-5-1.8,27.4,27.4,0,0,0-3.52-.3,17.85,17.85,0,0,0-5.25.75,19,19,0,0,0-7.8,4.65,18.22,18.22,0,0,0-4.65,7.8,16.06,16.06,0,0,0-.68,3.3c0,.6-.07,1.2-.07,1.88A16.79,16.79,0,0,0,29.32,31.42Z"
    transform="translate(-3.73 -3.73)" />
    <path d="M59.7,24.52a1.57,1.57,0,0,0,2.48.38,1.82,1.82,0,0,0,.45-1.5,4.64,4.64,0,0,0-.3-1A16,16,0,0,0,60,17.92l-1.35-1.57a10.18,10.18,0,0,0-1.73-1.43,15.87,15.87,0,0,0-4.35-2.25c-.3-.07-.6-.23-1-.3a1.44,1.44,0,0,0-1.5.45,1.6,1.6,0,0,0,.3,2.48,1.07,1.07,0,0,0,.45.15,11.81,11.81,0,0,1,4.27,2,16.11,16.11,0,0,1,1.27,1.05,5.63,5.63,0,0,1,1,1.27,11.74,11.74,0,0,1,2,4.27A.66.66,0,0,1,59.7,24.52Z"
    transform="translate(-3.73 -3.73)" /> </symbol>
  <symbol viewBox="0 0 367.21 489.6" id="icon-social">
    <title>social</title>
    <path d="M337.71,336.6A76.29,76.29,0,0,0,294.44,350l-99.39-78.15a76.2,76.2,0,0,0-.29-54.87l97.9-78.62a76.34,76.34,0,1,0-27.32-37l-99.39,79.82A76.45,76.45,0,1,0,166.73,308l99.39,78.12a76.52,76.52,0,1,0,71.6-49.49Z" transform="translate(-47)"
    /> </symbol>
  <symbol viewBox="0 0 62.52 62.51" id="icon-tag">
    <title>icon-tag</title>
    <path d="M32.5,32.5a6.3,6.3,0,1,1,0-8.91,6.23,6.23,0,0,1,0,8.91Zm35,4.06L40.16,9.06A4.49,4.49,0,0,0,37,7.66L11.25,6.25a4.72,4.72,0,0,0-5,4.38v.63L7.81,36.88a4.44,4.44,0,0,0,1.41,3l27.19,27.5a4.5,4.5,0,0,0,3.28,1.41A4.26,4.26,0,0,0,43,67.34L67.34,43.13A4.67,4.67,0,0,0,67.5,36.56Z"
    transform="translate(-6.25 -6.24)" /> </symbol>
  <symbol viewBox="0 0 21.67 43.33" id="icon-triangle-left">
    <title>triangle-left</title>
    <path d="M21.67,43.33,0,21.67,21.67,0" fill="#fff" /> </symbol>
  <symbol viewBox="0 0 21.67 43.33" id="icon-triangle-right">
    <title>triangle-right</title>
    <path d="M0,0,21.67,21.67,0,43.33" fill="#fff" /> </symbol>
  <symbol viewBox="0 0 273.39 222.18" id="icon-twitter">
    <title>icon-twitter</title>
    <path d="M273.39,26.3a112.12,112.12,0,0,1-32.21,8.83,56.25,56.25,0,0,0,24.66-31,112.3,112.3,0,0,1-35.62,13.61,56.14,56.14,0,0,0-95.58,51.16A159.24,159.24,0,0,1,19,10.27,56.15,56.15,0,0,0,36.39,85.15a55.86,55.86,0,0,1-25.41-7c0,.23,0,.47,0,.71a56.12,56.12,0,0,0,45,55,56.23,56.23,0,0,1-25.33,1,56.15,56.15,0,0,0,52.4,39,112.54,112.54,0,0,1-69.66,24A114.17,114.17,0,0,1,0,197a158.76,158.76,0,0,0,86,25.2c103.17,0,159.58-85.47,159.58-159.59q0-3.65-.16-7.26A114,114,0,0,0,273.39,26.3Z"
    /> </symbol>
  <symbol viewBox="0 0 512 512" id="icon-youtube">
    <title>youtube</title>
    <g>
      <g>
        <path d="M490.24,113.92c-13.888-24.704-28.96-29.248-59.648-30.976C399.936,80.864,322.848,80,256.064,80
			c-66.912,0-144.032,0.864-174.656,2.912c-30.624,1.76-45.728,6.272-59.744,31.008C7.36,138.592,0,181.088,0,255.904
			C0,255.968,0,256,0,256c0,0.064,0,0.096,0,0.096v0.064c0,74.496,7.36,117.312,21.664,141.728
			c14.016,24.704,29.088,29.184,59.712,31.264C112.032,430.944,189.152,432,256.064,432c66.784,0,143.872-1.056,174.56-2.816
			c30.688-2.08,45.76-6.56,59.648-31.264C504.704,373.504,512,330.688,512,256.192c0,0,0-0.096,0-0.16c0,0,0-0.064,0-0.096
			C512,181.088,504.704,138.592,490.24,113.92z M192,352V160l160,96L192,352z" /> </g>
    </g>
  </symbol>
</svg>